<svg width="34" height="34" viewBox="0 0 34 34" fill="none" xmlns="http://www.w3.org/2000/svg">
<g clip-path="url(#clip0)">
<path d="M2.125 6.00946C4.00562 5.22321 6.70225 4.37534 9.3245 4.11184C12.1508 3.82709 14.5478 4.24571 15.9375 5.70984V26.4201C13.9506 25.2938 11.4325 25.1387 9.10988 25.3725C6.60238 25.6275 4.07363 26.3521 2.125 27.0958V6.00946ZM18.0625 5.70984C19.4522 4.24571 21.8493 3.82709 24.6755 4.11184C27.2978 4.37534 29.9944 5.22321 31.875 6.00946V27.0958C29.9242 26.3521 27.3976 25.6253 24.8901 25.3746C22.5654 25.1387 20.0494 25.2917 18.0625 26.4201V5.70984ZM17 3.78884C14.9069 1.98896 11.8724 1.72121 9.10988 1.99746C5.89263 2.32259 2.64563 3.42546 0.622625 4.34559C0.437004 4.43001 0.279598 4.56606 0.169195 4.73751C0.0587917 4.90895 5.64643e-05 5.10854 0 5.31246L0 28.6875C4.92192e-05 28.8652 0.0447039 29.0402 0.129874 29.1962C0.215044 29.3522 0.338006 29.4844 0.487498 29.5806C0.63699 29.6768 0.808232 29.734 0.985539 29.7469C1.16285 29.7598 1.34055 29.7279 1.50238 29.6543C3.37663 28.8043 6.39625 27.7822 9.32238 27.4868C12.3165 27.1851 14.8261 27.6717 16.1712 29.3505C16.2708 29.4746 16.397 29.5747 16.5404 29.6435C16.6838 29.7123 16.8409 29.7481 17 29.7481C17.1591 29.7481 17.3162 29.7123 17.4596 29.6435C17.603 29.5747 17.7292 29.4746 17.8288 29.3505C19.1739 27.6717 21.6835 27.1851 24.6755 27.4868C27.6038 27.7822 30.6255 28.8043 32.4976 29.6543C32.6595 29.7279 32.8372 29.7598 33.0145 29.7469C33.1918 29.734 33.363 29.6768 33.5125 29.5806C33.662 29.4844 33.785 29.3522 33.8701 29.1962C33.9553 29.0402 34 28.8652 34 28.6875V5.31246C33.9999 5.10854 33.9412 4.90895 33.8308 4.73751C33.7204 4.56606 33.563 4.43001 33.3774 4.34559C31.3544 3.42546 28.1074 2.32259 24.8901 1.99746C22.1276 1.71909 19.0931 1.98896 17 3.78884Z" fill="#3445E5"/>
<path d="M2.125 6.00946L1.93214 5.54815L1.625 5.67656V6.00946H2.125ZM9.3245 4.11184L9.37449 4.60933L9.37462 4.60932L9.3245 4.11184ZM15.9375 5.70984H16.4375V5.51032L16.3001 5.36561L15.9375 5.70984ZM15.9375 26.4201L15.6909 26.8551L16.4375 27.2783V26.4201H15.9375ZM9.10988 25.3725L9.05981 24.875L9.05929 24.875L9.10988 25.3725ZM2.125 27.0958H1.625V27.8219L2.30329 27.563L2.125 27.0958ZM18.0625 5.70984L17.6999 5.36561L17.5625 5.51032V5.70984H18.0625ZM24.6755 4.11184L24.6254 4.60932L24.6255 4.60933L24.6755 4.11184ZM31.875 6.00946H32.375V5.67656L32.0679 5.54815L31.875 6.00946ZM31.875 27.0958L31.6969 27.563L32.375 27.8216V27.0958H31.875ZM24.8901 25.3746L24.8397 25.872L24.8404 25.8721L24.8901 25.3746ZM18.0625 26.4201H17.5625V27.2791L18.3094 26.8549L18.0625 26.4201ZM17 3.78884L16.674 4.16795L17 4.44827L17.326 4.16795L17 3.78884ZM9.10988 1.99746L9.06012 1.49994L9.0596 1.49999L9.10988 1.99746ZM0.622625 4.34559L0.829625 4.80072L0.829635 4.80072L0.622625 4.34559ZM0 5.31246L-0.5 5.31232V5.31246H0ZM0 28.6875H-0.5L-0.5 28.6876L0 28.6875ZM1.50238 29.6543L1.29586 29.199L1.29537 29.1992L1.50238 29.6543ZM9.32238 27.4868L9.27224 26.9894L9.27216 26.9894L9.32238 27.4868ZM16.1712 29.3505L15.7811 29.6631L15.7812 29.6634L16.1712 29.3505ZM17.8288 29.3505L18.2188 29.6634L18.2189 29.6631L17.8288 29.3505ZM24.6755 27.4868L24.7257 26.9894H24.7257L24.6755 27.4868ZM32.4976 29.6543L32.7046 29.1992L32.7043 29.1991L32.4976 29.6543ZM34 28.6875L34.5 28.6876V28.6875H34ZM34 5.31246H34.5V5.31232L34 5.31246ZM33.3774 4.34559L33.1704 4.80072L33.1704 4.80072L33.3774 4.34559ZM24.8901 1.99746L24.9404 1.49999L24.9403 1.49998L24.8901 1.99746ZM2.31786 6.47077C4.168 5.69726 6.81537 4.86649 9.37449 4.60933L9.27451 3.61434C6.58913 3.88418 3.84325 4.74916 1.93214 5.54815L2.31786 6.47077ZM9.37462 4.60932C12.1604 4.32864 14.351 4.76473 15.5749 6.05406L16.3001 5.36561C14.7445 3.72669 12.1411 3.32553 9.27438 3.61435L9.37462 4.60932ZM15.4375 5.70984V26.4201H16.4375V5.70984H15.4375ZM16.1841 25.9851C14.0648 24.7838 11.423 24.6371 9.05981 24.875L9.15994 25.8699C11.442 25.6403 13.8365 25.8039 15.6909 26.8551L16.1841 25.9851ZM9.05929 24.875C6.49635 25.1357 3.92368 25.8741 1.94671 26.6287L2.30329 27.563C4.22357 26.83 6.7084 26.1193 9.16046 25.8699L9.05929 24.875ZM2.625 27.0958V6.00946H1.625V27.0958H2.625ZM18.4251 6.05406C19.649 4.76473 21.8396 4.32864 24.6254 4.60932L24.7256 3.61435C21.8589 3.32553 19.2555 3.72669 17.6999 5.36561L18.4251 6.05406ZM24.6255 4.60933C27.1846 4.86649 29.832 5.69726 31.6821 6.47077L32.0679 5.54815C30.1567 4.74916 27.4109 3.88418 24.7255 3.61434L24.6255 4.60933ZM31.375 6.00946V27.0958H32.375V6.00946H31.375ZM32.0531 26.6286C30.0746 25.8743 27.5037 25.1334 24.9399 24.8771L24.8404 25.8721C27.2916 26.1172 29.7739 26.8299 31.6969 27.563L32.0531 26.6286ZM24.9406 24.8771C22.5753 24.6372 19.9353 24.7815 17.8156 25.9853L18.3094 26.8549C20.1635 25.8019 22.5554 25.6403 24.8397 25.872L24.9406 24.8771ZM18.5625 26.4201V5.70984H17.5625V26.4201H18.5625ZM17.326 3.40972C15.0729 1.47229 11.8612 1.21983 9.06012 1.49994L9.15963 2.49498C11.8835 2.22259 14.7409 2.50563 16.674 4.16795L17.326 3.40972ZM9.0596 1.49999C5.77421 1.83201 2.4736 2.95441 0.415615 3.89045L0.829635 4.80072C2.81765 3.89651 6.01104 2.81317 9.16015 2.49493L9.0596 1.49999ZM0.415625 3.89045C0.142653 4.0146 -0.088827 4.21467 -0.251184 4.4668L0.589574 5.00821C0.648022 4.91745 0.731355 4.84542 0.829625 4.80072L0.415625 3.89045ZM-0.251184 4.4668C-0.413542 4.71892 -0.499917 5.01244 -0.5 5.31232L0.5 5.3126C0.50003 5.20464 0.531125 5.09898 0.589574 5.00821L-0.251184 4.4668ZM-0.5 5.31246V28.6875H0.5V5.31246H-0.5ZM-0.5 28.6876C-0.499928 28.949 -0.434259 29.2063 -0.309009 29.4357L0.568757 28.9567C0.523667 28.874 0.500026 28.7814 0.5 28.6873L-0.5 28.6876ZM-0.309009 29.4357C-0.18376 29.6652 -0.00293271 29.8596 0.216909 30.0011L0.758087 29.1602C0.678945 29.1092 0.613847 29.0393 0.568757 28.9567L-0.309009 29.4357ZM0.216909 30.0011C0.436749 30.1426 0.688576 30.2266 0.949323 30.2456L1.02176 29.2482C0.927888 29.2414 0.83723 29.2111 0.758087 29.1602L0.216909 30.0011ZM0.949323 30.2456C1.21007 30.2645 1.4714 30.2177 1.70938 30.1095L1.29537 29.1992C1.2097 29.2382 1.11562 29.255 1.02176 29.2482L0.949323 30.2456ZM1.70889 30.1097C3.54881 29.2753 6.51488 28.2728 9.37259 27.9843L9.27216 26.9894C6.27762 27.2916 3.20444 28.3334 1.29586 29.199L1.70889 30.1097ZM9.37251 27.9843C12.3277 27.6865 14.6035 28.1934 15.7811 29.6631L16.5614 29.0378C15.0488 27.15 12.3053 26.6837 9.27224 26.9894L9.37251 27.9843ZM15.7812 29.6634C15.9277 29.8458 16.1132 29.9931 16.3241 30.0943L16.7567 29.1927C16.6807 29.1563 16.614 29.1033 16.5613 29.0376L15.7812 29.6634ZM16.3241 30.0943C16.5351 30.1955 16.766 30.2481 17 30.2481V29.2481C16.9158 29.2481 16.8326 29.2292 16.7567 29.1927L16.3241 30.0943ZM17 30.2481C17.234 30.2481 17.4649 30.1955 17.6759 30.0943L17.2433 29.1927C17.1674 29.2292 17.0842 29.2481 17 29.2481V30.2481ZM17.6759 30.0943C17.8868 29.9931 18.0723 29.8458 18.2188 29.6634L17.4388 29.0376C17.386 29.1033 17.3193 29.1563 17.2433 29.1927L17.6759 30.0943ZM18.2189 29.6631C19.3966 28.1934 21.6723 27.6865 24.6253 27.9843L24.7257 26.9894C21.6947 26.6837 18.9512 27.15 17.4386 29.0378L18.2189 29.6631ZM24.6253 27.9843C27.4852 28.2728 30.4534 29.2753 32.2909 30.1096L32.7043 29.1991C30.7976 28.3334 27.7223 27.2916 24.7257 26.9894L24.6253 27.9843ZM32.2906 30.1095C32.5286 30.2177 32.7899 30.2645 33.0507 30.2456L32.9782 29.2482C32.8844 29.255 32.7903 29.2382 32.7046 29.1992L32.2906 30.1095ZM33.0507 30.2456C33.3114 30.2266 33.5633 30.1426 33.7831 30.0011L33.2419 29.1602C33.1628 29.2111 33.0721 29.2414 32.9782 29.2482L33.0507 30.2456ZM33.7831 30.0011C34.0029 29.8596 34.1838 29.6652 34.309 29.4357L33.4312 28.9567C33.3862 29.0393 33.3211 29.1092 33.2419 29.1602L33.7831 30.0011ZM34.309 29.4357C34.4343 29.2063 34.4999 28.949 34.5 28.6876L33.5 28.6873C33.5 28.7814 33.4763 28.874 33.4312 28.9567L34.309 29.4357ZM34.5 28.6875V5.31246H33.5V28.6875H34.5ZM34.5 5.31232C34.4999 5.01244 34.4135 4.71892 34.2512 4.4668L33.4104 5.00821C33.4689 5.09898 33.5 5.20464 33.5 5.3126L34.5 5.31232ZM34.2512 4.4668C34.0888 4.21467 33.8573 4.0146 33.5844 3.89045L33.1704 4.80072C33.2686 4.84542 33.352 4.91745 33.4104 5.00821L34.2512 4.4668ZM33.5844 3.89045C31.5264 2.95441 28.2258 1.83201 24.9404 1.49999L24.8399 2.49493C27.989 2.81317 31.1824 3.89651 33.1704 4.80072L33.5844 3.89045ZM24.9403 1.49998C22.1385 1.21765 18.927 1.47238 16.674 3.40972L17.326 4.16795C19.2593 2.50554 22.1168 2.22052 24.84 2.49494L24.9403 1.49998Z" fill="#1BC5BD"/>
</g>
<defs>
<clipPath id="clip0">
<rect width="34" height="34" fill="white"/>
</clipPath>
</defs>
</svg>
