<svg width="34" height="34" viewBox="0 0 34 34" fill="none" xmlns="http://www.w3.org/2000/svg">
<path d="M28.7873 16.6465L24.0833 21.3504L12.6496 9.91671L17.3535 5.21276L17.7071 4.85921L17.3535 4.50565L15.3277 2.47982L14.9742 2.12627L14.6206 2.47982L12.9483 4.1521L11.276 2.47982L10.9225 2.12627L10.5689 2.47982L7.89083 5.15793L6.21855 3.48565L5.865 3.1321L5.51144 3.48565L3.48561 5.51149L3.13205 5.86504L3.48561 6.21859L5.15789 7.89087L2.47977 10.569L2.12622 10.9225L2.47977 11.2761L4.15205 12.9484L2.47977 14.6207L2.12622 14.9742L2.47977 15.3278L4.50561 17.3536L4.85916 17.7071L5.21272 17.3536L9.91666 12.6496L21.3504 24.0834L16.6464 28.7873L16.2929 29.1409L16.6464 29.4944L18.6723 31.5203L19.0258 31.8738L19.3794 31.5203L21.0517 29.848L22.7239 31.5203L23.0775 31.8738L23.4311 31.5203L26.1092 28.8421L27.7814 30.5144L28.135 30.868L28.4886 30.5144L30.5144 28.4886L30.8679 28.135L30.5144 27.7815L28.8421 26.1092L31.5202 23.4311L31.8738 23.0775L31.5202 22.724L29.8479 21.0517L31.5202 19.3794L31.8738 19.0259L31.5202 18.6723L29.4944 16.6465L29.1408 16.2929L28.7873 16.6465Z" fill="#3445E5" stroke="#1BC5BD"/>
</svg>
