<svg width="35" height="34" viewBox="0 0 35 34" fill="none" xmlns="http://www.w3.org/2000/svg">
<g clip-path="url(#clip0)">
<path d="M17.1063 10.1023C16.1948 10.1023 15.2922 10.2807 14.4501 10.6274C13.608 10.974 12.8429 11.4821 12.1984 12.1226C11.5538 12.7631 11.0426 13.5235 10.6938 14.3604C10.345 15.1973 10.1654 16.0942 10.1654 17C10.1654 17.9059 10.345 18.8028 10.6938 19.6397C11.0426 20.4766 11.5538 21.237 12.1984 21.8775C12.8429 22.518 13.608 23.0261 14.4501 23.3727C15.2922 23.7194 16.1948 23.8978 17.1063 23.8978C18.9471 23.8978 20.7125 23.1711 22.0142 21.8775C23.3159 20.5839 24.0471 18.8294 24.0471 17C24.0471 15.1706 23.3159 13.4162 22.0142 12.1226C20.7125 10.829 18.9471 10.1023 17.1063 10.1023ZM12.3037 17C12.3037 15.7342 12.8097 14.5203 13.7103 13.6252C14.611 12.7301 15.8326 12.2273 17.1063 12.2273C18.38 12.2273 19.6016 12.7301 20.5022 13.6252C21.4029 14.5203 21.9089 15.7342 21.9089 17C21.9089 18.2659 21.4029 19.4798 20.5022 20.3749C19.6016 21.27 18.38 21.7728 17.1063 21.7728C15.8326 21.7728 14.611 21.27 13.7103 20.3749C12.8097 19.4798 12.3037 18.2659 12.3037 17Z" fill="#3445E5"/>
<path d="M20.946 2.8533C19.8192 -0.950449 14.3922 -0.950449 13.2653 2.8533L13.0643 3.53118C12.9856 3.7967 12.8481 4.04136 12.6619 4.24721C12.4757 4.45307 12.2455 4.61491 11.9882 4.72086C11.7309 4.82682 11.453 4.8742 11.1749 4.85955C10.8967 4.8449 10.6254 4.76857 10.3808 4.63618L9.75641 4.29618C6.24963 2.40068 2.41569 6.21293 4.32518 9.6958L4.66516 10.3163C4.79839 10.5594 4.87519 10.829 4.88994 11.1054C4.90468 11.3818 4.857 11.658 4.75038 11.9138C4.64376 12.1695 4.48091 12.3982 4.27377 12.5833C4.06663 12.7683 3.82044 12.905 3.55326 12.9832L2.87115 13.1829C-0.956377 14.3028 -0.956377 19.6961 2.87115 20.8159L3.55326 21.0157C3.82044 21.0939 4.06663 21.2305 4.27377 21.4156C4.48091 21.6006 4.64376 21.8294 4.75038 22.0851C4.857 22.3408 4.90468 22.617 4.88994 22.8934C4.87519 23.1698 4.79839 23.4395 4.66516 23.6826L4.32304 24.3031C2.41569 27.7881 6.24963 31.6003 9.75641 29.7006L10.3808 29.3627C10.6254 29.2303 10.8967 29.154 11.1749 29.1393C11.453 29.1246 11.7309 29.172 11.9882 29.278C12.2455 29.3839 12.4757 29.5458 12.6619 29.7516C12.8481 29.9575 12.9856 30.2022 13.0643 30.4677L13.2653 31.1455C14.3922 34.9493 19.8192 34.9493 20.946 31.1455L21.147 30.4677C21.2257 30.2022 21.3632 29.9575 21.5494 29.7516C21.7356 29.5458 21.9658 29.3839 22.2231 29.278C22.4805 29.172 22.7584 29.1246 23.0365 29.1393C23.3147 29.154 23.586 29.2303 23.8306 29.3627L24.455 29.7027C27.9617 31.6003 31.7978 27.7859 29.8862 24.3031L29.5462 23.6826C29.413 23.4395 29.3362 23.1698 29.3214 22.8934C29.3067 22.617 29.3544 22.3408 29.461 22.0851C29.5676 21.8294 29.7305 21.6006 29.9376 21.4156C30.1447 21.2305 30.3909 21.0939 30.6581 21.0157L31.3402 20.8159C35.1677 19.6961 35.1677 14.3028 31.3402 13.1829L30.6581 12.9832C30.3909 12.905 30.1447 12.7683 29.9376 12.5833C29.7305 12.3982 29.5676 12.1695 29.461 11.9138C29.3544 11.658 29.3067 11.3818 29.3214 11.1054C29.3362 10.829 29.413 10.5594 29.5462 10.3163L29.8883 9.6958C31.7978 6.2108 27.9596 2.40068 24.455 4.2983L23.8306 4.63618C23.586 4.76857 23.3147 4.8449 23.0365 4.85955C22.7584 4.8742 22.4805 4.82682 22.2231 4.72086C21.9658 4.61491 21.7356 4.45307 21.5494 4.24721C21.3632 4.04136 21.2257 3.7967 21.147 3.53118L20.946 2.8533ZM15.3159 3.45468C15.842 1.6803 18.3694 1.6803 18.8954 3.45468L19.0964 4.13255C19.2654 4.70223 19.5605 5.22711 19.9601 5.66871C20.3598 6.11031 20.8538 6.45743 21.4059 6.68463C21.9581 6.91183 22.5544 7.01334 23.1512 6.98173C23.748 6.95011 24.3301 6.78617 24.8548 6.50193L25.4771 6.16193C27.1107 5.28005 28.8983 7.05443 28.0088 8.68005L27.6688 9.30055C27.3832 9.82208 27.2186 10.4005 27.1872 10.9934C27.1557 11.5864 27.2581 12.1788 27.4869 12.7273C27.7157 13.2758 28.0651 13.7665 28.5095 14.1634C28.9539 14.5602 29.482 14.8533 30.0551 15.021L30.7351 15.2208C32.5206 15.7436 32.5206 18.2553 30.7351 18.7781L30.053 18.9778C29.4797 19.1457 28.9516 19.439 28.5072 19.8361C28.0629 20.2333 27.7136 20.7242 27.4849 21.273C27.2563 21.8217 27.1542 22.4143 27.186 23.0074C27.2178 23.6005 27.3828 24.1789 27.6688 24.7004L28.0109 25.3188C28.8983 26.9423 27.1128 28.7188 25.4771 27.8348L24.8548 27.4969C24.3299 27.2127 23.7477 27.0488 23.1508 27.0174C22.5539 26.9859 21.9575 27.0876 21.4053 27.315C20.8531 27.5424 20.3591 27.8898 19.9596 28.3316C19.5601 28.7735 19.2651 29.2986 19.0964 29.8684L18.8954 30.5442C18.3694 32.3186 15.842 32.3186 15.3159 30.5442L15.1149 29.8663C14.9459 29.2969 14.6508 28.7723 14.2514 28.3309C13.8519 27.8896 13.3581 27.5426 12.8062 27.3154C12.2543 27.0882 11.6583 26.9866 11.0618 27.0181C10.4652 27.0495 9.88334 27.2131 9.35869 27.4969L8.73431 27.8369C7.10067 28.7188 5.31306 26.9444 6.20259 25.3188L6.54257 24.7004C6.829 24.1789 6.99429 23.6002 7.02631 23.0069C7.05833 22.4135 6.95628 21.8206 6.72763 21.2716C6.49898 20.7226 6.14955 20.2314 5.70496 19.8341C5.26038 19.4368 4.73193 19.1435 4.15839 18.9757L3.47628 18.7759C1.69081 18.2532 1.69081 15.7414 3.47628 15.2187L4.15839 15.0189C4.73104 14.8509 5.25862 14.5577 5.70253 14.1608C6.14645 13.764 6.49546 13.2735 6.72402 12.7253C6.95258 12.1771 7.0549 11.5851 7.02351 10.9925C6.99212 10.4 6.8278 9.82186 6.54257 9.30055L6.20045 8.68005C5.31306 7.05655 7.09853 5.28005 8.73431 6.16405L9.35869 6.50193C9.88334 6.78577 10.4652 6.94939 11.0618 6.9808C11.6583 7.01221 12.2543 6.9106 12.8062 6.68344C13.3581 6.45627 13.8519 6.10929 14.2514 5.66791C14.6508 5.22653 14.9459 4.70194 15.1149 4.13255L15.3159 3.45468Z" fill="#1BC5BD"/>
</g>
<defs>
<clipPath id="clip0">
<rect width="34.2125" height="34" fill="white"/>
</clipPath>
</defs>
</svg>
