<svg width="34" height="32" viewBox="0 0 34 32" fill="none" xmlns="http://www.w3.org/2000/svg">
<g clip-path="url(#clip0)">
<path d="M17 7.8692C17.2818 7.8692 17.552 7.97284 17.7513 8.15731C17.9506 8.34178 18.0625 8.59197 18.0625 8.85285V11.8038C18.0625 12.0647 17.9506 12.3149 17.7513 12.4994C17.552 12.6838 17.2818 12.7875 17 12.7875C16.7182 12.7875 16.448 12.6838 16.2487 12.4994C16.0494 12.3149 15.9375 12.0647 15.9375 11.8038V8.85285C15.9375 8.59197 16.0494 8.34178 16.2487 8.15731C16.448 7.97284 16.7182 7.8692 17 7.8692ZM7.9305 11.2766C8.12975 11.0922 8.39995 10.9886 8.68169 10.9886C8.96342 10.9886 9.23363 11.0922 9.43288 11.2766L11.3773 13.0747C11.476 13.1661 11.5544 13.2747 11.6079 13.3942C11.6613 13.5137 11.6888 13.6418 11.6888 13.7711C11.6888 13.9005 11.6613 14.0285 11.6079 14.148C11.5544 14.2675 11.476 14.3761 11.3773 14.4675C11.2785 14.559 11.1612 14.6315 11.0321 14.681C10.903 14.7305 10.7647 14.756 10.625 14.756C10.4853 14.756 10.347 14.7305 10.2179 14.681C10.0888 14.6315 9.97154 14.559 9.87275 14.4675L7.9305 12.6675C7.73131 12.483 7.61941 12.2328 7.61941 11.972C7.61941 11.7112 7.73131 11.461 7.9305 11.2766ZM4.25 19.673C4.25 19.4121 4.36194 19.1619 4.5612 18.9775C4.76046 18.793 5.03071 18.6894 5.3125 18.6894H8.68275C8.96454 18.6894 9.23479 18.793 9.43405 18.9775C9.63331 19.1619 9.74525 19.4121 9.74525 19.673C9.74525 19.9339 9.63331 20.1841 9.43405 20.3686C9.23479 20.553 8.96454 20.6567 8.68275 20.6567H5.3125C5.03071 20.6567 4.76046 20.553 4.5612 20.3686C4.36194 20.1841 4.25 19.9339 4.25 19.673ZM24.4375 19.673C24.4375 19.4121 24.5494 19.1619 24.7487 18.9775C24.948 18.793 25.2182 18.6894 25.5 18.6894H28.6875C28.9693 18.6894 29.2395 18.793 29.4388 18.9775C29.6381 19.1619 29.75 19.4121 29.75 19.673C29.75 19.9339 29.6381 20.1841 29.4388 20.3686C29.2395 20.553 28.9693 20.6567 28.6875 20.6567H25.5C25.2182 20.6567 24.948 20.553 24.7487 20.3686C24.5494 20.1841 24.4375 19.9339 24.4375 19.673ZM26.0397 11.3199C25.8925 11.1843 25.6956 11.105 25.4881 11.0977C25.2806 11.0904 25.0778 11.1557 24.9199 11.2805L16.0374 18.3156C15.8304 18.477 15.6624 18.6769 15.5441 18.9022C15.4258 19.1275 15.3599 19.3734 15.3507 19.6238C15.3415 19.8741 15.3892 20.1235 15.4906 20.3558C15.5921 20.5881 15.7451 20.798 15.9397 20.9721C16.1343 21.1462 16.3662 21.2805 16.6205 21.3664C16.8747 21.4523 17.1455 21.4878 17.4155 21.4707C17.6855 21.4536 17.9486 21.3842 18.1878 21.267C18.427 21.1498 18.637 20.9875 18.8041 20.7905L26.1014 12.3369C26.2283 12.1898 26.2922 12.0045 26.2809 11.8165C26.2695 11.6285 26.1836 11.451 26.0397 11.3179V11.3199Z" fill="#3445E5"/>
<path fill-rule="evenodd" clip-rule="evenodd" d="M1.12791e-05 19.6731C0.00223269 17.3828 0.544379 15.1205 1.5886 13.0442C2.63282 10.9679 4.15396 9.12756 6.04582 7.65175C7.93767 6.17594 10.1547 5.10018 12.542 4.49957C14.9294 3.89897 17.4295 3.78799 19.868 4.17438C22.3065 4.56077 24.6244 5.43522 26.6601 6.73669C28.6958 8.03816 30.4002 9.73527 31.6542 11.7096C32.9082 13.6839 33.6816 15.8877 33.9206 18.1674C34.1595 20.447 33.8581 22.7474 33.0374 24.9081C32.0981 27.3731 29.1168 28.0597 26.8069 27.3672C24.0316 26.535 20.1344 25.575 17 25.575C13.8678 25.575 9.96626 26.535 7.19314 27.3672C4.88326 28.0597 1.90189 27.3731 0.962636 24.9081C0.323313 23.2263 -0.00220877 21.456 1.12791e-05 19.6731ZM17 5.90196C14.6208 5.9014 12.2762 6.42919 10.1628 7.44105C8.04954 8.45291 6.22924 9.91931 4.85471 11.7172C3.48019 13.5151 2.59154 15.5919 2.26336 17.7735C1.93518 19.9551 2.17704 22.1778 2.96864 24.2549C3.40001 25.3861 4.93001 25.9783 6.53864 25.4943C9.34364 24.6563 13.5108 23.6077 17 23.6077C20.4893 23.6077 24.6585 24.6543 27.4614 25.4963C29.07 25.9783 30.6 25.3861 31.0314 24.2549C31.823 22.1778 32.0648 19.9551 31.7367 17.7735C31.4085 15.5919 30.5198 13.5151 29.1453 11.7172C27.7708 9.91931 25.9505 8.45291 23.8372 7.44105C21.7239 6.42919 19.3792 5.9014 17 5.90196Z" fill="#1BC5BD"/>
</g>
<defs>
<clipPath id="clip0">
<rect width="34" height="31.4769" fill="white"/>
</clipPath>
</defs>
</svg>
