<svg width="226" height="72" viewBox="0 0 226 72" fill="none" xmlns="http://www.w3.org/2000/svg">
<g filter="url(#filter0_d)">
<path d="M43.7871 40.1562C43.3887 40.4492 42.9551 40.6484 42.4863 40.7539C42.0293 40.8594 41.5664 40.9121 41.0977 40.9121C39.4922 40.9121 38.0625 40.6719 36.8086 40.1914C35.5664 39.7227 34.4707 39.0723 33.5215 38.2402C32.584 37.4082 31.7812 36.4297 31.1133 35.3047C30.457 34.1797 29.9062 32.9668 29.4609 31.666C29.0273 30.3652 28.6934 29.0059 28.459 27.5879C28.2246 26.1699 28.0664 24.7578 27.9844 23.3516C27.9023 21.9336 27.8789 20.5508 27.9141 19.2031C27.9609 17.8438 28.043 16.584 28.1602 15.4238C27.9492 15.7402 27.6914 16.2441 27.3867 16.9355C27.082 17.627 26.7422 18.4355 26.3672 19.3613C26.0039 20.2871 25.623 21.3008 25.2246 22.4023C24.8262 23.4922 24.4277 24.5938 24.0293 25.707C23.6426 26.8203 23.2617 27.916 22.8867 28.9941C22.5234 30.0605 22.1953 31.0332 21.9023 31.9121C21.6211 32.791 21.375 33.5352 21.1641 34.1445C20.9648 34.7656 20.8359 35.1816 20.7773 35.3926C20.7305 35.5332 20.666 35.709 20.584 35.9199C20.5137 36.1309 20.4199 36.3359 20.3027 36.5352C20.1973 36.7344 20.0684 36.9043 19.916 37.0449C19.7754 37.1855 19.6113 37.2559 19.4238 37.2559C19.2129 37.2559 19.0371 37.168 18.8965 36.9922C18.7559 36.8281 18.6387 36.6289 18.5449 36.3945C18.4629 36.1602 18.3926 35.9258 18.334 35.6914C18.2871 35.457 18.252 35.2695 18.2285 35.1289C18.1582 34.6367 18.0938 34.0156 18.0352 33.2656C17.9766 32.5156 17.9238 31.6836 17.877 30.7695C17.8418 29.8555 17.8125 28.8828 17.7891 27.8516C17.7656 26.8086 17.7422 25.7656 17.7188 24.7227C17.707 23.668 17.6953 22.6367 17.6836 21.6289C17.6836 20.6094 17.6777 19.6602 17.666 18.7812C17.666 17.8906 17.666 17.0938 17.666 16.3906C17.666 15.6875 17.666 15.125 17.666 14.7031C17.4082 15.2891 17.0977 16.0332 16.7344 16.9355C16.3828 17.8379 15.9961 18.8516 15.5742 19.9766C15.1641 21.1016 14.7305 22.3145 14.2734 23.6152C13.8281 24.9043 13.3828 26.2344 12.9375 27.6055C12.5039 28.9766 12.082 30.3594 11.6719 31.7539C11.2734 33.1484 10.916 34.502 10.5996 35.8145C10.5645 35.9316 10.5176 36.0723 10.459 36.2363C10.4121 36.4121 10.3477 36.5762 10.2656 36.7285C10.1836 36.8809 10.0781 37.0098 9.94922 37.1152C9.83203 37.2324 9.68555 37.291 9.50977 37.291C9.3457 37.291 9.19922 37.2383 9.07031 37.1328C8.94141 37.0273 8.83008 36.8984 8.73633 36.7461C8.6543 36.6055 8.58398 36.4473 8.52539 36.2715C8.47852 36.1074 8.44922 35.9551 8.4375 35.8145C8.37891 35.5215 8.32617 35.1992 8.2793 34.8477C8.24414 34.4961 8.20898 34.1328 8.17383 33.7578C8.15039 33.3945 8.12695 33.0312 8.10352 32.668C8.08008 32.3164 8.05664 31.9883 8.0332 31.6836C7.9043 30.0781 7.81055 28.4902 7.75195 26.9199C7.70508 25.3496 7.68164 23.7676 7.68164 22.1738C7.68164 20.6035 7.70508 19.0449 7.75195 17.498C7.81055 15.9512 7.89258 14.3867 7.99805 12.8047C8.0332 12.3477 8.08594 11.8379 8.15625 11.2754C8.22656 10.7012 8.36133 10.1621 8.56055 9.6582C8.77148 9.1543 9.07031 8.73242 9.45703 8.39258C9.85547 8.05273 10.3945 7.88281 11.0742 7.88281C11.2383 7.88281 11.3789 7.92383 11.4961 8.00586C11.6133 8.07617 11.6719 8.20508 11.6719 8.39258V8.56836C11.5664 9.27148 11.4609 9.97461 11.3555 10.6777C11.25 11.3691 11.1387 12.0781 11.0215 12.8047C10.7402 15.1484 10.5 17.4922 10.3008 19.8359C10.1133 22.168 10.0195 24.5176 10.0195 26.8848C10.0195 27.8105 10.0371 28.7246 10.0723 29.627C10.1074 30.5293 10.1719 31.4375 10.2656 32.3516C11.0742 29.8438 11.7832 27.623 12.3926 25.6895C13.0137 23.7559 13.5586 22.0625 14.0273 20.6094C14.4961 19.1562 14.8887 17.9199 15.2051 16.9004C15.5332 15.8691 15.8086 15.0078 16.0312 14.3164C16.2539 13.625 16.4297 13.0742 16.5586 12.6641C16.6875 12.2422 16.793 11.9199 16.875 11.6973C16.957 11.4629 17.0156 11.293 17.0508 11.1875C17.0859 11.082 17.1211 10.9883 17.1562 10.9062C17.332 10.5078 17.5723 10.1504 17.877 9.83398C18.1816 9.51758 18.5742 9.35938 19.0547 9.35938C19.3828 9.35938 19.6465 9.44141 19.8457 9.60547C20.0566 9.76953 20.2207 9.97461 20.3379 10.2207C20.4551 10.4668 20.5312 10.7363 20.5664 11.0293C20.6133 11.3223 20.6367 11.5918 20.6367 11.8379C20.6133 13.6543 20.5605 15.4531 20.4785 17.2344C20.3965 19.0039 20.3262 20.7617 20.2676 22.5078C20.209 24.2539 20.1797 25.9883 20.1797 27.7109C20.1914 29.4336 20.2734 31.1504 20.4258 32.8613C20.8945 31.4785 21.3281 30.1777 21.7266 28.959C22.125 27.7285 22.5 26.5566 22.8516 25.4434C23.2148 24.3301 23.5605 23.2578 23.8887 22.2266C24.2285 21.1953 24.5742 20.1758 24.9258 19.168C25.2891 18.1602 25.6641 17.1523 26.0508 16.1445C26.4375 15.1367 26.8652 14.0996 27.334 13.0332C27.4395 12.8223 27.5566 12.6113 27.6855 12.4004C27.8145 12.1777 27.9609 11.9785 28.125 11.8027C28.2891 11.627 28.4766 11.4805 28.6875 11.3633C28.8984 11.2461 29.1328 11.1875 29.3906 11.1875C29.7539 11.1875 30.041 11.3047 30.252 11.5391C30.4629 11.7734 30.6211 12.0547 30.7266 12.3828C30.8438 12.7109 30.9199 13.0566 30.9551 13.4199C30.9902 13.7715 31.0078 14.0703 31.0078 14.3164C31.0078 15.3945 30.9727 16.5898 30.9023 17.9023C30.832 19.2031 30.7793 20.5566 30.7441 21.9629C30.7207 23.3691 30.7383 24.793 30.7969 26.2344C30.8555 27.6758 31.0137 29.0703 31.2715 30.418C31.5293 31.7656 31.9102 33.0254 32.4141 34.1973C32.918 35.3691 33.5977 36.3887 34.4531 37.2559C35.3086 38.1348 36.3633 38.8262 37.6172 39.3301C38.8828 39.834 40.4004 40.0859 42.1699 40.0859C42.4395 40.0859 42.6973 40.0625 42.9434 40.0156C43.2012 39.9805 43.4473 39.9102 43.6816 39.8047L43.7871 40.1562ZM46.1791 22.7891C46.1791 22.918 46.1323 23.0352 46.0385 23.1406C45.9448 23.2344 45.8334 23.2812 45.7045 23.2812C45.5991 23.2812 45.4877 23.252 45.3705 23.1934C45.2534 23.123 45.1186 23.0469 44.9662 22.9648C44.8256 22.8828 44.6557 22.8125 44.4565 22.7539C44.269 22.6836 44.0522 22.6484 43.8061 22.6484C43.2319 22.6484 42.7162 22.8301 42.2592 23.1934C41.8139 23.5449 41.433 23.9844 41.1166 24.5117C40.812 25.0391 40.5776 25.6016 40.4135 26.1992C40.2495 26.7969 40.1674 27.3359 40.1674 27.8164C40.1674 28.1562 40.1967 28.4902 40.2553 28.8184C40.3139 29.1348 40.4135 29.4277 40.5541 29.6973C40.7065 29.9551 40.9116 30.166 41.1694 30.3301C41.4272 30.4824 41.7553 30.5586 42.1537 30.5586C42.5756 30.5586 42.9799 30.4824 43.3666 30.3301C43.7534 30.166 44.1166 29.9551 44.4565 29.6973C44.4682 29.3223 44.5268 28.9297 44.6323 28.5195C44.7495 28.0977 44.8959 27.6875 45.0717 27.2891C45.2475 26.8789 45.4467 26.4922 45.6694 26.1289C45.9037 25.7656 46.144 25.4434 46.3901 25.1621L46.6186 25.3027C46.4897 25.7012 46.3959 26.1113 46.3373 26.5332C46.2787 26.9551 46.2495 27.3711 46.2495 27.7812C46.2495 28.2031 46.2846 28.6016 46.3549 28.9766C46.4252 29.3516 46.5483 29.6797 46.7241 29.9609C46.8998 30.2305 47.1401 30.4473 47.4448 30.6113C47.7495 30.7637 48.142 30.8398 48.6225 30.8398C49.2084 30.8398 49.7475 30.7051 50.2397 30.4355C50.7319 30.166 51.1655 29.8262 51.5405 29.416L51.6811 29.4863C51.4702 29.8965 51.1948 30.2891 50.8549 30.6641C50.5151 31.0391 50.1342 31.3789 49.7123 31.6836C49.3022 31.9766 48.8627 32.2109 48.394 32.3867C47.9252 32.5625 47.4623 32.6504 47.0053 32.6504C46.3608 32.6504 45.8334 32.4629 45.4233 32.0879C45.0131 31.7246 44.7319 31.2617 44.5795 30.6992C44.0873 31.1914 43.5366 31.6074 42.9272 31.9473C42.3295 32.2754 41.6967 32.4395 41.0287 32.4395C40.5366 32.4395 40.0971 32.3457 39.7104 32.1582C39.3354 31.9824 39.019 31.7422 38.7612 31.4375C38.5034 31.1328 38.3041 30.7754 38.1635 30.3652C38.0346 29.9434 37.9702 29.5039 37.9702 29.0469C37.9702 28.5195 38.0522 27.9805 38.2162 27.4297C38.392 26.8672 38.6264 26.3164 38.9194 25.7773C39.2241 25.2383 39.5815 24.7285 39.9916 24.248C40.4018 23.7676 40.8471 23.3457 41.3276 22.9824C41.8198 22.6191 42.3354 22.332 42.8745 22.1211C43.4135 21.9102 43.9643 21.8047 44.5268 21.8047C44.6557 21.8047 44.8139 21.8223 45.0014 21.8574C45.1889 21.8809 45.3705 21.9277 45.5463 21.998C45.7221 22.0684 45.8686 22.168 45.9858 22.2969C46.1147 22.4258 46.1791 22.5898 46.1791 22.7891ZM63.2489 37.3965C63.2489 38.3457 63.1376 39.3125 62.9149 40.2969C62.6923 41.293 62.3407 42.207 61.8602 43.0391C61.3798 43.8711 60.7587 44.5742 59.997 45.1484C59.247 45.7227 58.3387 46.0801 57.2723 46.2207C57.1669 46.2441 57.0673 46.2617 56.9735 46.2734C56.8798 46.2852 56.7743 46.291 56.6571 46.291C56.0126 46.291 55.4032 46.1621 54.829 45.9043C54.2548 45.6465 53.7509 45.2949 53.3173 44.8496C52.8954 44.416 52.5614 43.9062 52.3153 43.3203C52.0692 42.7461 51.9462 42.1426 51.9462 41.5098C51.9462 40.8066 52.0927 40.1328 52.3856 39.4883C52.6669 38.8438 53.0419 38.2461 53.5106 37.6953C53.9794 37.1562 54.5067 36.6758 55.0927 36.2539C55.6903 35.8438 56.2997 35.5156 56.9208 35.2695L57.0262 35.498C55.8895 36.1074 55.0106 36.9453 54.3895 38.0117C53.7684 39.0781 53.4579 40.2559 53.4579 41.5449C53.4579 42.0723 53.5282 42.582 53.6688 43.0742C53.8212 43.5781 54.0438 44.0176 54.3368 44.3926C54.6298 44.7676 54.993 45.0664 55.4266 45.2891C55.872 45.5234 56.3817 45.6406 56.9559 45.6406C57.7645 45.6406 58.4384 45.4297 58.9774 45.0078C59.5165 44.5859 59.9442 44.0586 60.2606 43.4258C60.5887 42.793 60.8173 42.1016 60.9462 41.3516C61.0868 40.6133 61.1571 39.9219 61.1571 39.2773C61.1571 38.7148 61.122 38.1641 61.0516 37.625C60.9813 37.0859 60.9052 36.5469 60.8231 36.0078C60.7528 35.4805 60.6825 34.9473 60.6122 34.4082C60.5419 33.8691 60.5067 33.3184 60.5067 32.7559C60.5067 32.3574 60.5184 31.9473 60.5419 31.5254C60.577 31.1035 60.6356 30.6758 60.7177 30.2422C60.202 30.8516 59.6044 31.373 58.9247 31.8066C58.2567 32.2285 57.536 32.4395 56.7626 32.4395C56.2821 32.4395 55.8485 32.3457 55.4618 32.1582C55.0868 31.9824 54.7645 31.7422 54.495 31.4375C54.2372 31.1328 54.038 30.7754 53.8973 30.3652C53.7684 29.9434 53.704 29.5039 53.704 29.0469C53.704 28.5195 53.786 27.9746 53.9501 27.4121C54.1259 26.8379 54.3602 26.2871 54.6532 25.7598C54.9579 25.2207 55.3153 24.7168 55.7255 24.248C56.1356 23.7676 56.5809 23.3516 57.0614 23C57.5536 22.6367 58.0692 22.3555 58.6083 22.1562C59.1473 21.9453 59.6981 21.8398 60.2606 21.8398C60.5419 21.8398 60.8231 21.8809 61.1044 21.9629C61.3973 22.0332 61.661 22.1445 61.8954 22.2969C62.1415 22.4492 62.3348 22.6426 62.4755 22.877C62.6278 23.1113 62.704 23.3926 62.704 23.7207C62.704 23.9551 62.6512 24.166 62.5458 24.3535C62.4403 24.541 62.3055 24.7109 62.1415 24.8633C61.9774 25.0039 61.7958 25.1328 61.5966 25.25C61.3973 25.3672 61.204 25.4668 61.0165 25.5488L60.9462 25.3379C61.0399 25.2324 61.1044 25.1035 61.1395 24.9512C61.1747 24.7988 61.1923 24.6523 61.1923 24.5117C61.1923 24.3008 61.1571 24.0898 61.0868 23.8789C61.0282 23.6562 60.9345 23.457 60.8055 23.2812C60.6884 23.0938 60.536 22.9414 60.3485 22.8242C60.161 22.707 59.9501 22.6484 59.7157 22.6484C59.118 22.6484 58.579 22.8125 58.0985 23.1406C57.618 23.457 57.2079 23.8613 56.868 24.3535C56.5399 24.8457 56.2821 25.3848 56.0946 25.9707C55.9188 26.5449 55.8309 27.0898 55.8309 27.6055C55.8309 27.9453 55.8602 28.291 55.9188 28.6426C55.9891 28.9941 56.1005 29.3105 56.2528 29.5918C56.4052 29.873 56.6102 30.1074 56.868 30.2949C57.1376 30.4707 57.4774 30.5586 57.8876 30.5586C58.5204 30.5586 59.1063 30.3945 59.6454 30.0664C60.1845 29.7266 60.6649 29.3281 61.0868 28.8711C61.2509 28.4023 61.4618 27.9629 61.7196 27.5527C61.9891 27.1309 62.3173 26.7676 62.704 26.4629L63.0028 26.6738C62.7333 27.1074 62.5575 27.5996 62.4755 28.1504C62.3934 28.7012 62.3524 29.2402 62.3524 29.7676C62.3524 30.3887 62.3993 31.0098 62.493 31.6309C62.5868 32.252 62.6864 32.8789 62.7919 33.5117C62.9091 34.1445 63.0145 34.7832 63.1083 35.4277C63.202 36.0723 63.2489 36.7285 63.2489 37.3965ZM72.0921 17.8145C72.0921 18.0488 72.0394 18.2832 71.9339 18.5176C71.8284 18.752 71.6878 18.9629 71.512 19.1504C71.348 19.3262 71.1546 19.4727 70.932 19.5898C70.7093 19.707 70.4808 19.7656 70.2464 19.7656C69.9417 19.7656 69.6956 19.666 69.5081 19.4668C69.3323 19.2676 69.2445 19.0156 69.2445 18.7109C69.2445 18.4766 69.2972 18.248 69.4027 18.0254C69.5081 17.791 69.6429 17.5859 69.807 17.4102C69.9827 17.2344 70.1761 17.0938 70.387 16.9883C70.6097 16.8711 70.8382 16.8125 71.0726 16.8125C71.3773 16.8125 71.6234 16.9062 71.8109 17.0938C71.9984 17.2812 72.0921 17.5215 72.0921 17.8145ZM77.014 29.4863C76.7445 29.9316 76.4222 30.3418 76.0472 30.7168C75.6839 31.0801 75.2796 31.4023 74.8343 31.6836C74.4007 31.9531 73.932 32.1641 73.428 32.3164C72.9359 32.4688 72.4261 32.5449 71.8988 32.5449C71.2425 32.5449 70.6566 32.4336 70.1409 32.2109C69.637 31.9883 69.2093 31.6836 68.8577 31.2969C68.5179 30.8984 68.2542 30.4355 68.0667 29.9082C67.8909 29.3691 67.803 28.7832 67.803 28.1504C67.803 27.4707 67.9027 26.8262 68.1019 26.2168C68.3011 25.6074 68.5765 25.0391 68.928 24.5117C69.2796 23.9727 69.6898 23.4805 70.1585 23.0352C70.639 22.5898 71.1488 22.1914 71.6878 21.8398L71.8988 21.998C71.3245 22.6777 70.8558 23.4395 70.4925 24.2832C70.1409 25.127 69.9652 26.0059 69.9652 26.9199C69.9652 27.4473 70.0238 27.957 70.1409 28.4492C70.2698 28.9297 70.4632 29.3574 70.721 29.7324C70.9905 30.1074 71.3304 30.4062 71.7405 30.6289C72.1507 30.8516 72.6488 30.9629 73.2347 30.9629C73.9261 30.9629 74.5823 30.8164 75.2034 30.5234C75.8363 30.2305 76.4046 29.8613 76.9085 29.416L77.014 29.4863ZM90.3045 29.4863C89.9998 29.9902 89.6013 30.4414 89.1091 30.8398C88.6287 31.2266 88.0955 31.5605 87.5095 31.8418C86.9353 32.1113 86.3318 32.3164 85.699 32.457C85.0779 32.6094 84.4802 32.6855 83.906 32.6855C83.2029 32.6855 82.5466 32.5801 81.9373 32.3691C81.3396 32.1582 80.8123 31.8535 80.3552 31.4551C79.9099 31.0449 79.5584 30.5586 79.3005 29.9961C79.0545 29.4219 78.9314 28.7715 78.9314 28.0449C78.9314 27.2246 79.0779 26.4219 79.3709 25.6367C79.6755 24.8516 80.0916 24.1543 80.6189 23.5449C81.158 22.9355 81.7908 22.4492 82.5173 22.0859C83.2556 21.7109 84.0525 21.5234 84.908 21.5234C85.1892 21.5234 85.4705 21.5527 85.7517 21.6113C86.033 21.6699 86.2908 21.7695 86.5252 21.9102C86.7595 22.0391 86.947 22.2148 87.0877 22.4375C87.24 22.6602 87.3162 22.9414 87.3162 23.2812C87.3162 23.6211 87.2283 23.9199 87.0525 24.1777C86.8767 24.4238 86.6541 24.6289 86.3845 24.793C86.115 24.957 85.822 25.0918 85.5056 25.1973C85.2009 25.291 84.908 25.3613 84.6267 25.4082V25.1621C84.7908 25.1152 84.9666 25.0508 85.1541 24.9688C85.3533 24.8867 85.5349 24.7812 85.699 24.6523C85.863 24.5234 85.9978 24.3711 86.1033 24.1953C86.2205 24.0195 86.2791 23.8262 86.2791 23.6152C86.2791 23.4512 86.238 23.3164 86.156 23.2109C86.0857 23.0938 85.992 23 85.8748 22.9297C85.7693 22.8594 85.6462 22.8066 85.5056 22.7715C85.365 22.7363 85.2244 22.7188 85.0837 22.7188C84.4861 22.7188 83.947 22.8535 83.4666 23.123C82.9978 23.3809 82.5994 23.7266 82.2712 24.1602C81.9431 24.5938 81.6912 25.0801 81.5154 25.6191C81.3513 26.1582 81.2693 26.7031 81.2693 27.2539C81.2693 27.8867 81.363 28.4551 81.5505 28.959C81.7498 29.4512 82.0252 29.873 82.3767 30.2246C82.7283 30.5762 83.156 30.8457 83.6599 31.0332C84.1638 31.2207 84.7263 31.3145 85.3474 31.3145C85.7459 31.3145 86.1677 31.2734 86.613 31.1914C87.0701 31.0977 87.5095 30.9688 87.9314 30.8047C88.365 30.6406 88.7752 30.4414 89.1619 30.207C89.5486 29.9727 89.8826 29.709 90.1638 29.416L90.3045 29.4863ZM111.77 12.084C111.77 12.2012 111.753 12.3066 111.717 12.4004C111.694 12.4824 111.665 12.5703 111.63 12.6641C111.43 13.1328 111.219 13.5957 110.997 14.0527C110.786 14.498 110.61 14.9727 110.469 15.4766C110.106 16.8008 109.813 18.1777 109.59 19.6074C109.38 21.0254 109.227 22.4844 109.133 23.9844C110.083 24.0078 111.079 24.125 112.122 24.3359C113.165 24.5469 114.178 24.8574 115.163 25.2676C115.901 24.8223 116.575 24.3066 117.184 23.7207C117.805 23.1348 118.333 22.4844 118.766 21.7695C119.212 21.0547 119.551 20.2871 119.786 19.4668C120.032 18.6465 120.143 17.7852 120.12 16.8828C120.12 15.5352 119.885 14.3281 119.417 13.2617C118.96 12.1953 118.344 11.293 117.571 10.5547C116.809 9.81641 115.936 9.25391 114.952 8.86719C113.967 8.46875 112.954 8.26953 111.911 8.26953C111.184 8.26953 110.428 8.4043 109.643 8.67383C108.858 8.94336 108.143 9.31836 107.499 9.79883C106.854 10.2793 106.321 10.8594 105.899 11.5391C105.489 12.2188 105.284 12.9687 105.284 13.7891C105.284 14.1055 105.319 14.3926 105.389 14.6504C105.471 14.9082 105.553 15.1426 105.635 15.3535C105.729 15.5645 105.811 15.7637 105.881 15.9512C105.964 16.127 106.005 16.3027 106.005 16.4785C106.005 16.8184 105.887 17.1055 105.653 17.3398C105.43 17.5625 105.155 17.6738 104.827 17.6738C104.522 17.6738 104.282 17.5918 104.106 17.4277C103.93 17.2637 103.79 17.0586 103.684 16.8125C103.59 16.5664 103.526 16.3086 103.491 16.0391C103.467 15.7578 103.456 15.5117 103.456 15.3008C103.456 14.2695 103.696 13.3379 104.176 12.5059C104.669 11.6621 105.307 10.9121 106.092 10.2559C106.585 9.83398 107.077 9.46484 107.569 9.14844C108.073 8.82031 108.589 8.55078 109.116 8.33984C109.643 8.11719 110.194 7.95312 110.768 7.84766C111.354 7.73047 111.975 7.67188 112.631 7.67188C114.214 7.67188 115.637 7.90625 116.903 8.375C118.169 8.83203 119.241 9.46484 120.12 10.2734C120.999 11.0703 121.673 12.002 122.141 13.0684C122.622 14.1348 122.862 15.2715 122.862 16.4785C122.862 17.5918 122.692 18.623 122.352 19.5723C122.012 20.5098 121.549 21.3711 120.964 22.1562C120.378 22.9297 119.686 23.6211 118.889 24.2305C118.092 24.8398 117.231 25.3672 116.305 25.8125C116.903 26.1406 117.454 26.5156 117.958 26.9375C118.473 27.3477 118.919 27.8164 119.294 28.3438C119.669 28.8594 119.962 29.4277 120.173 30.0488C120.383 30.6699 120.489 31.3438 120.489 32.0703C120.489 32.8672 120.331 33.6172 120.014 34.3203C119.698 35.0352 119.27 35.6621 118.731 36.2012C118.192 36.752 117.565 37.1855 116.85 37.502C116.147 37.8184 115.403 37.9766 114.618 37.9766C114.161 37.9766 113.68 37.8887 113.176 37.7129C112.673 37.5488 112.192 37.3262 111.735 37.0449C111.278 36.7637 110.856 36.4414 110.469 36.0781C110.083 35.7148 109.772 35.3398 109.538 34.9531L109.784 34.7422C110.381 35.2461 111.061 35.6504 111.823 35.9551C112.596 36.2715 113.37 36.4297 114.143 36.4297C114.741 36.3359 115.274 36.125 115.743 35.7969C116.223 35.4688 116.628 35.0645 116.956 34.584C117.284 34.1152 117.53 33.5938 117.694 33.0195C117.87 32.457 117.958 31.8887 117.958 31.3145C117.958 30.1543 117.7 29.1641 117.184 28.3438C116.68 27.5234 116.024 26.8438 115.215 26.3047C114.208 26.7031 113.176 27.002 112.122 27.2012C111.067 27.4004 110.024 27.5117 108.993 27.5352C108.969 29.3867 108.993 31.2031 109.063 32.9844C109.145 34.7773 109.245 36.4766 109.362 38.082L109.028 38.1875C108.735 37.4141 108.483 36.5879 108.272 35.709C108.061 34.8301 107.885 33.9277 107.745 33.002C107.604 32.0762 107.487 31.1445 107.393 30.207C107.311 29.2578 107.253 28.3262 107.217 27.4121C106.936 27.3652 106.649 27.3008 106.356 27.2188C106.075 27.125 105.817 27.0137 105.583 26.8848C105.36 26.7441 105.178 26.5801 105.038 26.3926C104.897 26.2051 104.827 25.9766 104.827 25.707C104.827 25.4375 104.891 25.209 105.02 25.0215C105.161 24.834 105.342 24.6758 105.565 24.5469C105.788 24.4062 106.04 24.3008 106.321 24.2305C106.602 24.1484 106.883 24.0898 107.165 24.0547C107.165 23.5625 107.171 22.959 107.182 22.2441C107.194 21.5293 107.223 20.7734 107.27 19.9766C107.329 19.168 107.411 18.3535 107.516 17.5332C107.633 16.7012 107.798 15.9219 108.008 15.1953C108.219 14.4688 108.483 13.8242 108.799 13.2617C109.116 12.6992 109.508 12.2832 109.977 12.0137C110.153 11.9082 110.346 11.8145 110.557 11.7324C110.768 11.6387 110.991 11.5918 111.225 11.5918C111.589 11.5918 111.77 11.7559 111.77 12.084ZM109.01 27.0605C109.924 27.0488 110.827 26.9316 111.717 26.709C112.62 26.4863 113.475 26.1699 114.284 25.7598C113.499 25.373 112.655 25.0859 111.753 24.8984C110.862 24.6992 109.977 24.5762 109.098 24.5293C109.075 24.9512 109.057 25.373 109.046 25.7949C109.034 26.2168 109.022 26.6387 109.01 27.0605ZM105.477 25.584C105.477 25.7598 105.524 25.918 105.618 26.0586C105.723 26.1875 105.852 26.3047 106.005 26.4102C106.169 26.5156 106.35 26.6094 106.549 26.6914C106.76 26.7617 106.977 26.8203 107.2 26.8672C107.188 26.4688 107.176 26.082 107.165 25.707C107.165 25.332 107.165 24.957 107.165 24.582C106.954 24.6055 106.749 24.6465 106.549 24.7051C106.35 24.752 106.169 24.8164 106.005 24.8984C105.852 24.9688 105.723 25.0625 105.618 25.1797C105.524 25.2969 105.477 25.4316 105.477 25.584ZM140.371 29.4863C140.172 29.8965 139.902 30.2891 139.563 30.6641C139.223 31.0391 138.842 31.3789 138.42 31.6836C137.998 31.9766 137.553 32.2109 137.084 32.3867C136.615 32.5625 136.152 32.6504 135.695 32.6504C135.063 32.6504 134.535 32.457 134.113 32.0703C133.703 31.6953 133.399 31.2383 133.199 30.6992C132.742 31.1562 132.238 31.5371 131.688 31.8418C131.137 32.1348 130.527 32.2812 129.859 32.2812C129.262 32.2812 128.729 32.1758 128.26 31.9648C127.803 31.7422 127.422 31.4434 127.117 31.0684C126.813 30.6934 126.578 30.2598 126.414 29.7676C126.262 29.2754 126.186 28.748 126.186 28.1855C126.186 27.5527 126.274 26.9375 126.449 26.3398C126.625 25.7305 126.871 25.1562 127.188 24.6172C127.504 24.0664 127.879 23.5566 128.313 23.0879C128.746 22.6191 129.215 22.2031 129.719 21.8398L129.93 21.998C129.438 22.7012 129.045 23.4805 128.752 24.3359C128.459 25.1797 128.313 26.041 128.313 26.9199C128.313 27.2949 128.354 27.6934 128.436 28.1152C128.518 28.5371 128.652 28.9297 128.84 29.293C129.027 29.6562 129.274 29.9609 129.578 30.207C129.895 30.4414 130.287 30.5586 130.756 30.5586C131.154 30.5586 131.535 30.4941 131.899 30.3652C132.262 30.2246 132.613 30.0371 132.953 29.8027C132.93 29.6621 132.912 29.5273 132.9 29.3984C132.889 29.2578 132.883 29.1172 132.883 28.9766C132.883 28.4141 132.965 27.8047 133.129 27.1484C133.293 26.4922 133.51 25.8418 133.779 25.1973C134.049 24.541 134.354 23.9199 134.693 23.334C135.045 22.7363 135.402 22.2266 135.766 21.8047L135.977 21.9629C135.707 22.8652 135.484 23.7969 135.309 24.7578C135.133 25.7188 135.045 26.668 135.045 27.6055C135.045 28.0273 135.068 28.4375 135.115 28.8359C135.174 29.2227 135.285 29.5742 135.449 29.8906C135.625 30.1953 135.865 30.4414 136.17 30.6289C136.475 30.8047 136.879 30.8926 137.383 30.8926C137.945 30.8926 138.473 30.752 138.965 30.4707C139.457 30.1777 139.891 29.8262 140.266 29.416L140.371 29.4863ZM154.013 29.4863C153.755 29.9199 153.451 30.3242 153.099 30.6992C152.759 31.0742 152.378 31.4023 151.957 31.6836C151.546 31.9648 151.101 32.1816 150.621 32.334C150.14 32.498 149.642 32.5801 149.126 32.5801C148.365 32.5801 147.691 32.4512 147.105 32.1934C146.531 31.9355 146.033 31.5898 145.611 31.1562C145.189 30.7109 144.837 30.1953 144.556 29.6094C144.275 29.0234 144.052 28.4141 143.888 27.7812C143.724 27.1367 143.607 26.4805 143.537 25.8125C143.466 25.1445 143.431 24.5059 143.431 23.8965C143.431 23.334 143.455 22.7598 143.501 22.1738C143.548 21.5762 143.619 20.9668 143.712 20.3457C143.349 20.3574 142.992 20.3633 142.64 20.3633C142.3 20.3633 141.96 20.3633 141.621 20.3633C141.398 20.3633 141.146 20.3574 140.865 20.3457C140.584 20.334 140.32 20.2871 140.074 20.2051C139.828 20.123 139.623 20 139.459 19.8359C139.294 19.6719 139.212 19.4316 139.212 19.1152C139.212 18.9395 139.248 18.7988 139.318 18.6934C139.376 18.5879 139.464 18.5117 139.582 18.4648C139.687 18.4062 139.816 18.3711 139.968 18.3594C140.109 18.3359 140.255 18.3242 140.408 18.3242C140.584 18.3242 141 18.3535 141.656 18.4121C142.312 18.4707 143.103 18.5352 144.029 18.6055C144.322 17.2227 144.697 15.8633 145.154 14.5273C145.623 13.1914 146.15 11.9727 146.736 10.8711H146.982C146.607 12.1484 146.273 13.4375 145.98 14.7383C145.699 16.0391 145.488 17.3574 145.347 18.6934C146.203 18.752 147.082 18.8047 147.984 18.8516C148.898 18.8867 149.789 18.9043 150.656 18.9043C151.933 18.9043 152.97 18.8926 153.767 18.8691C154.564 18.8457 155.191 18.8164 155.648 18.7812C156.187 18.7344 156.591 18.6875 156.861 18.6406L156.931 18.9395C156.228 19.1035 155.425 19.2617 154.523 19.4141C153.621 19.5547 152.66 19.6836 151.64 19.8008C150.621 19.9062 149.566 20 148.476 20.082C147.386 20.1641 146.302 20.2285 145.224 20.2754C145.201 20.5098 145.189 20.75 145.189 20.9961C145.189 21.2305 145.189 21.4648 145.189 21.6992C145.189 22.2617 145.212 22.8828 145.259 23.5625C145.318 24.2422 145.417 24.9277 145.558 25.6191C145.699 26.2988 145.886 26.9668 146.121 27.623C146.367 28.2676 146.683 28.8418 147.07 29.3457C147.468 29.8379 147.943 30.2363 148.494 30.541C149.044 30.8457 149.695 30.998 150.445 30.998C151.136 30.998 151.757 30.8457 152.308 30.541C152.871 30.2363 153.404 29.8613 153.908 29.416L154.013 29.4863ZM167.761 29.4863C167.503 29.9199 167.198 30.3242 166.847 30.6992C166.507 31.0742 166.126 31.4023 165.704 31.6836C165.294 31.9648 164.849 32.1816 164.368 32.334C163.888 32.498 163.39 32.5801 162.874 32.5801C162.112 32.5801 161.438 32.4512 160.852 32.1934C160.278 31.9355 159.78 31.5898 159.358 31.1562C158.936 30.7109 158.585 30.1953 158.304 29.6094C158.022 29.0234 157.8 28.4141 157.636 27.7812C157.472 27.1367 157.354 26.4805 157.284 25.8125C157.214 25.1445 157.179 24.5059 157.179 23.8965C157.179 23.334 157.202 22.7598 157.249 22.1738C157.296 21.5762 157.366 20.9668 157.46 20.3457C157.097 20.3574 156.739 20.3633 156.388 20.3633C156.048 20.3633 155.708 20.3633 155.368 20.3633C155.145 20.3633 154.894 20.3574 154.612 20.3457C154.331 20.334 154.067 20.2871 153.821 20.2051C153.575 20.123 153.37 20 153.206 19.8359C153.042 19.6719 152.96 19.4316 152.96 19.1152C152.96 18.9395 152.995 18.7988 153.065 18.6934C153.124 18.5879 153.212 18.5117 153.329 18.4648C153.435 18.4062 153.563 18.3711 153.716 18.3594C153.856 18.3359 154.003 18.3242 154.155 18.3242C154.331 18.3242 154.747 18.3535 155.403 18.4121C156.06 18.4707 156.851 18.5352 157.776 18.6055C158.069 17.2227 158.444 15.8633 158.901 14.5273C159.37 13.1914 159.897 11.9727 160.483 10.8711H160.729C160.354 12.1484 160.02 13.4375 159.727 14.7383C159.446 16.0391 159.235 17.3574 159.095 18.6934C159.95 18.752 160.829 18.8047 161.731 18.8516C162.645 18.8867 163.536 18.9043 164.403 18.9043C165.681 18.9043 166.718 18.8926 167.515 18.8691C168.311 18.8457 168.938 18.8164 169.395 18.7812C169.935 18.7344 170.339 18.6875 170.608 18.6406L170.679 18.9395C169.976 19.1035 169.173 19.2617 168.27 19.4141C167.368 19.5547 166.407 19.6836 165.388 19.8008C164.368 19.9062 163.313 20 162.224 20.082C161.134 20.1641 160.05 20.2285 158.972 20.2754C158.948 20.5098 158.936 20.75 158.936 20.9961C158.936 21.2305 158.936 21.4648 158.936 21.6992C158.936 22.2617 158.96 22.8828 159.007 23.5625C159.065 24.2422 159.165 24.9277 159.306 25.6191C159.446 26.2988 159.634 26.9668 159.868 27.623C160.114 28.2676 160.431 28.8418 160.817 29.3457C161.216 29.8379 161.69 30.2363 162.241 30.541C162.792 30.8457 163.442 30.998 164.192 30.998C164.884 30.998 165.505 30.8457 166.056 30.541C166.618 30.2363 167.151 29.8613 167.655 29.416L167.761 29.4863ZM180.014 26.8145C180.014 27.6348 179.879 28.3965 179.61 29.0996C179.34 29.8027 178.959 30.4121 178.467 30.9277C177.975 31.4434 177.383 31.8477 176.692 32.1406C176.012 32.4336 175.256 32.5801 174.424 32.5801C173.686 32.5801 173.018 32.4395 172.42 32.1582C171.834 31.8887 171.33 31.5195 170.909 31.0508C170.487 30.582 170.164 30.0371 169.942 29.416C169.719 28.7832 169.608 28.1094 169.608 27.3945C169.608 26.7969 169.69 26.2285 169.854 25.6895C170.03 25.1504 170.27 24.6523 170.575 24.1953C170.879 23.7266 171.243 23.2988 171.664 22.9121C172.086 22.5137 172.543 22.1562 173.036 21.8398L173.246 21.998C172.754 22.5723 172.368 23.2051 172.086 23.8965C171.805 24.5879 171.664 25.3203 171.664 26.0938C171.664 26.6562 171.746 27.2305 171.911 27.8164C172.086 28.3906 172.338 28.918 172.666 29.3984C172.995 29.8789 173.405 30.2715 173.897 30.5762C174.389 30.8809 174.952 31.0332 175.584 31.0332C175.983 31.0332 176.358 30.9512 176.709 30.7871C177.061 30.623 177.366 30.4004 177.623 30.1191C177.893 29.8379 178.104 29.5215 178.256 29.1699C178.42 28.8066 178.502 28.4316 178.502 28.0449C178.502 27.6699 178.444 27.3066 178.327 26.9551C178.221 26.5918 178.069 26.2578 177.87 25.9531C177.67 25.6367 177.43 25.3555 177.149 25.1094C176.868 24.8516 176.563 24.6406 176.235 24.4766C176.047 24.3828 175.866 24.3125 175.69 24.2656C175.526 24.2188 175.344 24.166 175.145 24.1074C175.063 24.0957 174.975 24.0781 174.881 24.0547C174.788 24.0195 174.7 23.9844 174.618 23.9492C174.536 23.9023 174.465 23.8438 174.407 23.7734C174.348 23.7031 174.319 23.6152 174.319 23.5098C174.319 23.2988 174.395 23.1055 174.547 22.9297C174.7 22.7539 174.881 22.6016 175.092 22.4727C175.303 22.332 175.526 22.2266 175.76 22.1562C175.995 22.0742 176.2 22.0332 176.375 22.0332C176.973 22.0332 177.5 22.1855 177.957 22.4902C178.414 22.7949 178.795 23.1816 179.1 23.6504C179.405 24.1191 179.633 24.6348 179.786 25.1973C179.938 25.7598 180.014 26.2988 180.014 26.8145ZM199.773 29.4863C199.551 29.9082 199.31 30.3125 199.053 30.6992C198.806 31.0859 198.525 31.4258 198.209 31.7188C197.892 32.0117 197.535 32.2461 197.137 32.4219C196.738 32.5977 196.281 32.6855 195.765 32.6855C195.18 32.6855 194.676 32.5391 194.254 32.2461C193.832 31.9648 193.469 31.5898 193.164 31.1211C192.871 30.6406 192.631 30.0957 192.443 29.4863C192.267 28.877 192.121 28.2559 192.004 27.623C191.887 26.9902 191.799 26.3691 191.74 25.7598C191.681 25.1387 191.629 24.582 191.582 24.0898C191.359 24.2656 191.09 24.6055 190.773 25.1094C190.457 25.6016 190.135 26.1816 189.806 26.8496C189.478 27.5176 189.162 28.2441 188.857 29.0293C188.564 29.8145 188.324 30.5879 188.137 31.3496C188.101 31.5137 188.043 31.6836 187.961 31.8594C187.89 32.0352 187.797 32.1934 187.68 32.334C187.574 32.4863 187.445 32.6094 187.293 32.7031C187.14 32.8086 186.971 32.8613 186.783 32.8613C186.478 32.8613 186.256 32.7559 186.115 32.5449C185.986 32.334 185.892 32.0938 185.834 31.8242C185.494 30.3359 185.254 28.9121 185.113 27.5527C184.984 26.1934 184.92 24.834 184.92 23.4746C184.92 23.1465 184.973 22.8652 185.078 22.6309C185.195 22.3848 185.348 22.1855 185.535 22.0332C185.723 21.8691 185.945 21.752 186.203 21.6816C186.461 21.5996 186.73 21.5586 187.012 21.5586C187.047 21.5586 187.099 21.5586 187.17 21.5586C187.252 21.5586 187.328 21.5703 187.398 21.5938C187.469 21.6055 187.527 21.6289 187.574 21.6641C187.621 21.6992 187.639 21.7461 187.627 21.8047C187.322 23.3398 187.176 24.9043 187.187 26.498C187.199 28.0801 187.281 29.6035 187.433 31.0684C187.562 30.4824 187.75 29.8203 187.996 29.082C188.254 28.332 188.547 27.582 188.875 26.832C189.215 26.0703 189.578 25.3496 189.965 24.6699C190.363 23.9785 190.767 23.3984 191.178 22.9297C191.377 22.707 191.576 22.5195 191.775 22.3672C191.986 22.2031 192.244 22.1211 192.549 22.1211C192.724 22.1211 192.871 22.1562 192.988 22.2266C193.105 22.2969 193.199 22.3848 193.269 22.4902C193.351 22.5957 193.41 22.7188 193.445 22.8594C193.492 22.9883 193.527 23.1172 193.551 23.2461C193.609 23.5859 193.668 24.0254 193.726 24.5645C193.785 25.1035 193.855 25.6777 193.937 26.2871C194.031 26.8965 194.142 27.5117 194.271 28.1328C194.4 28.7422 194.564 29.2988 194.764 29.8027C194.963 30.2949 195.203 30.6992 195.484 31.0156C195.765 31.332 196.099 31.4902 196.486 31.4902C196.803 31.4902 197.107 31.4316 197.4 31.3145C197.705 31.1855 197.992 31.0273 198.262 30.8398C198.531 30.6406 198.783 30.418 199.017 30.1719C199.252 29.9141 199.463 29.6621 199.65 29.416L199.773 29.4863ZM211.816 28.2207C211.816 28.8301 211.704 29.4043 211.482 29.9434C211.259 30.4824 210.949 30.9512 210.55 31.3496C210.152 31.748 209.683 32.0645 209.144 32.2988C208.616 32.5332 208.042 32.6504 207.421 32.6504C207.011 32.6504 206.607 32.5859 206.208 32.457C205.81 32.3281 205.441 32.1465 205.101 31.9121C204.773 31.666 204.486 31.373 204.24 31.0332C203.993 30.6934 203.818 30.3184 203.712 29.9082L204.116 29.8027C204.421 30.1777 204.773 30.4883 205.171 30.7344C205.581 30.9805 206.044 31.1035 206.56 31.1035C206.993 31.1035 207.392 31.0098 207.755 30.8223C208.13 30.6348 208.447 30.3887 208.704 30.084C208.974 29.7793 209.179 29.4277 209.32 29.0293C209.472 28.6191 209.548 28.2031 209.548 27.7812C209.548 27.2773 209.478 26.8613 209.337 26.5332C209.197 26.1934 209.009 25.9121 208.775 25.6895C208.552 25.4551 208.3 25.2559 208.019 25.0918C207.738 24.916 207.45 24.7402 207.158 24.5645C206.876 24.3887 206.601 24.1895 206.331 23.9668C206.074 23.7441 205.851 23.457 205.663 23.1055C205.652 23.7969 205.534 24.5234 205.312 25.2852C205.089 26.0469 204.784 26.7852 204.398 27.5C204.023 28.2148 203.589 28.8828 203.097 29.5039C202.605 30.125 202.083 30.6465 201.533 31.0684L201.392 30.8223C201.767 30.4238 202.095 29.9258 202.376 29.3281C202.658 28.7305 202.886 28.1035 203.062 27.4473C203.249 26.7793 203.384 26.1113 203.466 25.4434C203.56 24.7754 203.607 24.166 203.607 23.6152C203.607 23.3223 203.577 23.0352 203.519 22.7539C203.46 22.4727 203.431 22.1973 203.431 21.9277C203.431 21.5996 203.525 21.3477 203.712 21.1719C203.911 20.9961 204.163 20.9082 204.468 20.9082C204.702 20.9082 204.89 20.9609 205.031 21.0664C205.171 21.1719 205.3 21.3125 205.417 21.4883C205.534 21.6523 205.652 21.8457 205.769 22.0684C205.886 22.2793 206.033 22.502 206.208 22.7363C206.396 22.959 206.624 23.1816 206.894 23.4043C207.175 23.6152 207.533 23.8027 207.966 23.9668C208.47 24.1543 208.95 24.3711 209.408 24.6172C209.876 24.8516 210.286 25.1328 210.638 25.4609C211.001 25.7891 211.288 26.1816 211.499 26.6387C211.71 27.084 211.816 27.6113 211.816 28.2207Z" fill="#3445E5"/>
</g>
<g filter="url(#filter1_d)">
<path d="M11.4889 49.6279C12.0049 49.6279 12.4489 49.9579 12.8209 50.6179C13.2049 51.2779 13.3969 51.9619 13.3969 52.6699C13.3969 53.3659 13.1929 54.0679 12.7849 54.7759C12.3769 55.4719 11.8729 56.0959 11.2729 56.6479C10.6729 57.1999 10.0069 57.6619 9.27492 58.0339C8.55492 58.3939 7.88892 58.5739 7.27692 58.5739C7.03692 58.5739 6.80892 58.5439 6.59292 58.4839C6.54492 58.6879 6.46092 59.0539 6.34092 59.5819C6.22092 60.1099 6.11892 60.5479 6.03492 60.8959C5.95092 61.2439 5.85492 61.6159 5.74692 62.0119C5.53092 62.8279 5.33892 63.2359 5.17092 63.2359C5.00292 63.2359 4.82892 63.1039 4.64892 62.8399C4.45692 62.5879 4.36092 62.3599 4.36092 62.1559C4.36092 61.9519 4.55292 61.0759 4.93692 59.5279C6.08892 54.8599 6.66492 51.7159 6.66492 50.0959C6.66492 49.7359 6.79692 49.5559 7.06092 49.5559C7.27692 49.5559 7.53492 49.7179 7.83492 50.0419C8.14692 50.3539 8.30292 50.7019 8.30292 51.0859C8.30292 51.2779 8.27892 51.4879 8.23092 51.7159C9.29892 50.3239 10.3849 49.6279 11.4889 49.6279ZM7.09692 57.1699C7.73292 57.1699 8.41692 56.9539 9.14892 56.5219C9.89292 56.0899 10.5229 55.5199 11.0389 54.8119C11.5669 54.0919 11.8309 53.3779 11.8309 52.6699C11.8309 51.6739 11.5969 51.1759 11.1289 51.1759C10.6609 51.1759 10.0249 51.5779 9.22092 52.3819C8.42892 53.1859 7.79892 54.2299 7.33092 55.5139L6.91692 57.1699H7.09692ZM20.5706 50.1859C20.6186 49.9939 20.6666 49.8619 20.7146 49.7899C20.7626 49.7179 20.8646 49.6819 21.0206 49.6819C21.1886 49.6819 21.3866 49.8379 21.6146 50.1499C21.8546 50.4619 21.9746 50.7619 21.9746 51.0499C21.9746 51.2059 21.7106 52.1299 21.1826 53.8219C20.6546 55.5139 20.2466 56.8579 19.9586 57.8539C19.8146 58.3579 19.6106 58.6099 19.3466 58.6099C19.1906 58.6099 19.0586 58.5439 18.9506 58.4119C18.8426 58.2799 18.7886 58.0399 18.7886 57.6919C18.7886 57.3439 18.9266 56.7139 19.2026 55.8019C18.6986 56.6179 18.1526 57.2899 17.5646 57.8179C16.9766 58.3459 16.4366 58.6099 15.9446 58.6099C15.4646 58.6099 15.0086 58.3819 14.5766 57.9259C14.1446 57.4699 13.9286 57.0019 13.9286 56.5219C13.9286 55.3819 14.2586 53.9599 14.9186 52.2559C15.5906 50.5399 16.1486 49.6819 16.5926 49.6819C16.8086 49.6819 16.9946 49.7839 17.1506 49.9879C17.3186 50.1799 17.4026 50.4019 17.4026 50.6539C17.4026 50.7619 17.2406 51.1519 16.9166 51.8239C16.5926 52.4839 16.2686 53.2639 15.9446 54.1639C15.6206 55.0519 15.4586 55.8319 15.4586 56.5039C15.4586 56.6959 15.5186 56.8579 15.6386 56.9899C15.7586 57.1099 15.9026 57.1699 16.0706 57.1699C16.5266 57.1699 17.0666 56.7679 17.6906 55.9639C18.3266 55.1599 18.9026 54.2239 19.4186 53.1559C19.9346 52.0879 20.3186 51.0979 20.5706 50.1859ZM28.0126 49.6819C28.4206 49.6819 28.8046 49.9099 29.1646 50.3659C29.5246 50.8099 29.7046 51.1999 29.7046 51.5359C29.7046 51.7399 29.6086 51.8419 29.4166 51.8419C29.2846 51.8419 29.0806 51.7399 28.8046 51.5359C28.5286 51.3199 28.2466 51.2119 27.9586 51.2119C27.6706 51.2119 27.2146 51.3799 26.5906 51.7159C25.9786 52.0519 25.6726 52.4059 25.6726 52.7779C25.6726 53.0539 26.2246 53.5279 27.3286 54.1999C27.7486 54.4639 28.1266 54.8059 28.4626 55.2259C28.8106 55.6339 28.9846 56.0779 28.9846 56.5579C28.9846 57.0259 28.6546 57.4879 27.9946 57.9439C27.3466 58.3879 26.5846 58.6099 25.7086 58.6099C24.8446 58.6099 24.0766 58.3999 23.4046 57.9799C22.7446 57.5599 22.4146 57.1639 22.4146 56.7919C22.4146 56.6359 22.4506 56.5159 22.5226 56.4319C22.6066 56.3359 22.7086 56.2879 22.8286 56.2879C22.9486 56.2879 23.1166 56.3659 23.3326 56.5219C23.9806 56.9899 24.6526 57.2239 25.3486 57.2239C26.0566 57.2239 26.5666 57.1459 26.8786 56.9899C27.1906 56.8219 27.3466 56.6059 27.3466 56.3419C27.3466 56.0659 27.1726 55.7779 26.8246 55.4779C26.4766 55.1659 26.0926 54.8899 25.6726 54.6499C25.2646 54.4099 24.8866 54.1159 24.5386 53.7679C24.1906 53.4199 24.0166 53.0659 24.0166 52.7059C24.0166 52.0699 24.5146 51.4099 25.5106 50.7259C26.5186 50.0299 27.3526 49.6819 28.0126 49.6819ZM32.6527 45.3439C32.6527 44.8759 32.7967 44.6419 33.0847 44.6419C33.3127 44.6419 33.5527 44.8219 33.8047 45.1819C34.0687 45.5419 34.2007 45.8899 34.2007 46.2259C34.2007 47.0059 34.0027 48.3379 33.6067 50.2219C33.2227 52.0939 32.7187 53.9659 32.0947 55.8379C33.2947 53.6659 34.2967 52.0999 35.1007 51.1399C35.9167 50.1679 36.6127 49.6819 37.1887 49.6819C37.5007 49.6819 37.8607 49.9519 38.2687 50.4919C38.6887 51.0319 38.8987 51.5719 38.8987 52.1119C38.8987 52.6519 38.7487 53.4619 38.4487 54.5419C37.7047 57.2539 37.0027 58.6099 36.3427 58.6099C36.0787 58.6099 35.9467 58.4299 35.9467 58.0699C35.9467 57.7099 36.0907 57.1039 36.3787 56.2519C37.0147 54.3919 37.3327 53.1379 37.3327 52.4899C37.3327 52.2739 37.2787 52.0939 37.1707 51.9499C37.0627 51.8059 36.9307 51.7339 36.7747 51.7339C36.6187 51.7339 36.4267 51.8179 36.1987 51.9859C35.9707 52.1539 35.6947 52.4479 35.3707 52.8679C34.9627 53.4079 34.5367 54.0139 34.0927 54.6859C33.6607 55.3579 33.3967 55.7659 33.3007 55.9099C33.2167 56.0419 33.0607 56.2879 32.8327 56.6479C32.6167 57.0079 32.4547 57.2779 32.3467 57.4579C32.2387 57.6259 32.1067 57.8119 31.9507 58.0159C31.6747 58.4119 31.4647 58.6099 31.3207 58.6099C31.1767 58.6099 30.9847 58.4779 30.7447 58.2139C30.5047 57.9379 30.3847 57.7099 30.3847 57.5299C30.3847 57.3379 30.4507 56.9839 30.5827 56.4679C31.1827 54.1639 31.5607 52.5859 31.7167 51.7339C32.3407 48.6139 32.6527 46.4839 32.6527 45.3439ZM48.1777 58.6099C48.0097 58.6099 47.8117 58.4839 47.5837 58.2319C47.3557 57.9679 47.2417 57.7219 47.2417 57.4939C47.2417 57.2659 47.4277 56.4859 47.7997 55.1539C48.1837 53.8219 48.5617 52.2199 48.9337 50.3479C49.3177 48.4639 49.5097 46.7419 49.5097 45.1819C49.5097 44.8219 49.6417 44.6419 49.9057 44.6419C50.0977 44.6419 50.3317 44.8219 50.6077 45.1819C50.8837 45.5299 51.0217 45.8719 51.0217 46.2079C51.0217 47.6839 50.6977 49.7899 50.0497 52.5259C51.4777 50.5939 52.7737 49.6279 53.9377 49.6279C54.5017 49.6279 54.9757 49.9039 55.3597 50.4559C55.7557 51.0079 55.9537 51.6679 55.9537 52.4359C55.9537 53.1919 55.7317 54.0619 55.2877 55.0459C54.8557 56.0299 54.2677 56.8759 53.5237 57.5839C52.7797 58.2799 51.9997 58.6279 51.1837 58.6279C50.3677 58.6279 49.5637 58.2139 48.7717 57.3859L48.7537 57.4039C48.4897 58.2079 48.2977 58.6099 48.1777 58.6099ZM51.0397 57.2239C51.8197 57.2239 52.5817 56.6959 53.3257 55.6399C54.0817 54.5719 54.4597 53.4499 54.4597 52.2739C54.4597 51.5659 54.2437 51.2119 53.8117 51.2119C53.1157 51.2119 52.3357 51.6979 51.4717 52.6699C50.6197 53.6419 49.8817 54.7999 49.2577 56.1439C49.8217 56.8639 50.4157 57.2239 51.0397 57.2239ZM63.2327 50.1859C63.2807 49.9939 63.3287 49.8619 63.3767 49.7899C63.4247 49.7179 63.5267 49.6819 63.6827 49.6819C63.8507 49.6819 64.0487 49.8379 64.2767 50.1499C64.5167 50.4619 64.6367 50.7619 64.6367 51.0499C64.6367 51.2059 64.3727 52.1299 63.8447 53.8219C63.3167 55.5139 62.9087 56.8579 62.6207 57.8539C62.4767 58.3579 62.2727 58.6099 62.0087 58.6099C61.8527 58.6099 61.7207 58.5439 61.6127 58.4119C61.5047 58.2799 61.4507 58.0399 61.4507 57.6919C61.4507 57.3439 61.5887 56.7139 61.8647 55.8019C61.3607 56.6179 60.8147 57.2899 60.2267 57.8179C59.6387 58.3459 59.0987 58.6099 58.6067 58.6099C58.1267 58.6099 57.6707 58.3819 57.2387 57.9259C56.8067 57.4699 56.5907 57.0019 56.5907 56.5219C56.5907 55.3819 56.9207 53.9599 57.5807 52.2559C58.2527 50.5399 58.8107 49.6819 59.2547 49.6819C59.4707 49.6819 59.6567 49.7839 59.8127 49.9879C59.9807 50.1799 60.0647 50.4019 60.0647 50.6539C60.0647 50.7619 59.9027 51.1519 59.5787 51.8239C59.2547 52.4839 58.9307 53.2639 58.6067 54.1639C58.2827 55.0519 58.1207 55.8319 58.1207 56.5039C58.1207 56.6959 58.1807 56.8579 58.3007 56.9899C58.4207 57.1099 58.5647 57.1699 58.7327 57.1699C59.1887 57.1699 59.7287 56.7679 60.3527 55.9639C60.9887 55.1599 61.5647 54.2239 62.0807 53.1559C62.5967 52.0879 62.9807 51.0979 63.2327 50.1859ZM67.5428 56.8099C67.5428 57.0379 67.6748 57.1519 67.9388 57.1519C68.3948 57.1519 68.9468 57.0259 69.5947 56.7739C70.2548 56.5099 70.6208 56.3779 70.6928 56.3779C70.9088 56.3779 71.0168 56.4919 71.0168 56.7199C71.0168 57.0679 70.6568 57.4699 69.9368 57.9259C69.2288 58.3819 68.5808 58.6099 67.9928 58.6099C67.4168 58.6099 66.9368 58.4539 66.5528 58.1419C66.1688 57.8179 65.9768 57.4879 65.9768 57.1519C65.9768 56.8159 66.0488 56.3899 66.1928 55.8739C66.3368 55.3459 66.5408 54.6559 66.8048 53.8039C67.0808 52.9399 67.2968 52.2259 67.4528 51.6619C66.8888 51.7939 66.5108 51.8599 66.3188 51.8599C66.1268 51.8599 65.9348 51.7639 65.7428 51.5719C65.5628 51.3679 65.4728 51.1759 65.4728 50.9959C65.4728 50.7079 66.2528 50.4319 67.8128 50.1679C68.0288 49.1719 68.1368 48.2899 68.1368 47.5219C68.1368 47.1619 68.2568 46.9819 68.4968 46.9819C68.7008 46.9819 68.9528 47.1139 69.2528 47.3779C69.5528 47.6299 69.7028 47.9179 69.7028 48.2419C69.7028 48.5659 69.6008 49.1359 69.3968 49.9519C70.0808 49.8919 70.6268 49.8619 71.0348 49.8619C71.7548 49.8619 72.1148 50.0179 72.1148 50.3299C72.1148 50.5099 71.9168 50.6599 71.5208 50.7799C71.1368 50.8999 70.3208 51.0859 69.0728 51.3379C68.8208 52.2859 68.5028 53.3719 68.1188 54.5959C67.7348 55.8079 67.5428 56.5459 67.5428 56.8099ZM74.5037 56.8099C74.5037 57.0379 74.6357 57.1519 74.8997 57.1519C75.3557 57.1519 75.9077 57.0259 76.5557 56.7739C77.2157 56.5099 77.5817 56.3779 77.6537 56.3779C77.8697 56.3779 77.9777 56.4919 77.9777 56.7199C77.9777 57.0679 77.6177 57.4699 76.8977 57.9259C76.1897 58.3819 75.5417 58.6099 74.9537 58.6099C74.3777 58.6099 73.8977 58.4539 73.5137 58.1419C73.1297 57.8179 72.9377 57.4879 72.9377 57.1519C72.9377 56.8159 73.0097 56.3899 73.1537 55.8739C73.2977 55.3459 73.5017 54.6559 73.7657 53.8039C74.0417 52.9399 74.2577 52.2259 74.4137 51.6619C73.8497 51.7939 73.4717 51.8599 73.2797 51.8599C73.0877 51.8599 72.8957 51.7639 72.7037 51.5719C72.5237 51.3679 72.4337 51.1759 72.4337 50.9959C72.4337 50.7079 73.2137 50.4319 74.7737 50.1679C74.9897 49.1719 75.0977 48.2899 75.0977 47.5219C75.0977 47.1619 75.2177 46.9819 75.4577 46.9819C75.6617 46.9819 75.9137 47.1139 76.2137 47.3779C76.5137 47.6299 76.6637 47.9179 76.6637 48.2419C76.6637 48.5659 76.5617 49.1359 76.3577 49.9519C77.0417 49.8919 77.5877 49.8619 77.9957 49.8619C78.7157 49.8619 79.0757 50.0179 79.0757 50.3299C79.0757 50.5099 78.8777 50.6599 78.4817 50.7799C78.0977 50.8999 77.2817 51.0859 76.0337 51.3379C75.7817 52.2859 75.4637 53.3719 75.0797 54.5959C74.6957 55.8079 74.5037 56.5459 74.5037 56.8099ZM84.8846 52.7419C84.8846 52.3339 84.8186 51.9499 84.6866 51.5899C84.5546 51.2179 84.3626 50.9479 84.1106 50.7799C83.2826 51.0079 82.5686 51.6499 81.9686 52.7059C81.3806 53.7499 81.0866 54.7339 81.0866 55.6579C81.0866 56.5819 81.3146 57.1579 81.7706 57.3859C82.6346 57.2179 83.3666 56.6299 83.9666 55.6219C84.5786 54.6019 84.8846 53.6419 84.8846 52.7419ZM80.1506 52.9039C80.5706 51.9679 81.1166 51.1999 81.7886 50.5999C82.4726 49.9879 83.1686 49.6819 83.8766 49.6819C84.5966 49.6819 85.1966 49.9879 85.6766 50.5999C86.1566 51.1999 86.3966 51.9379 86.3966 52.8139C86.3966 53.6779 86.1866 54.5659 85.7666 55.4779C85.3466 56.3779 84.7646 57.1279 84.0206 57.7279C83.2886 58.3159 82.5086 58.6099 81.6806 58.6099C81.0686 58.6099 80.5586 58.3279 80.1506 57.7639C79.7426 57.1999 79.5386 56.4859 79.5386 55.6219C79.5386 54.7459 79.7426 53.8399 80.1506 52.9039ZM89.3689 55.4779C90.5209 53.5219 91.4569 52.0699 92.1769 51.1219C92.9089 50.1619 93.5029 49.6819 93.9589 49.6819C94.4269 49.6819 94.8649 49.9279 95.2729 50.4199C95.6929 50.9119 95.9029 51.4339 95.9029 51.9859C95.9029 52.8499 95.7049 53.9059 95.3089 55.1539C94.5889 57.4579 93.9409 58.6099 93.3649 58.6099C93.1009 58.6099 92.9689 58.4299 92.9689 58.0699C92.9689 57.8179 93.0949 57.3079 93.3469 56.5399C93.6109 55.7599 93.8509 54.9979 94.0669 54.2539C94.2949 53.4979 94.4089 52.9339 94.4089 52.5619C94.4089 52.1779 94.3489 51.8959 94.2289 51.7159C94.1209 51.5359 94.0069 51.4459 93.8869 51.4459C93.7789 51.4459 93.6649 51.4819 93.5449 51.5539C93.4249 51.6259 93.2869 51.7459 93.1309 51.9139C92.9869 52.0819 92.8489 52.2499 92.7169 52.4179C92.5849 52.5739 92.4169 52.8019 92.2129 53.1019C92.0209 53.4019 91.8589 53.6599 91.7269 53.8759C91.5949 54.0799 91.4029 54.3799 91.1509 54.7759C90.8989 55.1719 90.7069 55.4719 90.5749 55.6759C90.4429 55.8799 90.2689 56.1559 90.0529 56.5039C89.8369 56.8519 89.6629 57.1219 89.5309 57.3139C89.4109 57.5059 89.2729 57.7159 89.1169 57.9439C88.8169 58.3879 88.5769 58.6099 88.3969 58.6099C88.2289 58.6099 88.0309 58.4779 87.8029 58.2139C87.5749 57.9379 87.4609 57.6979 87.4609 57.4939C87.4609 57.4339 87.5029 57.2719 87.5869 57.0079C87.8149 56.3119 88.0669 55.4539 88.3429 54.4339C88.6189 53.4019 88.7689 52.2319 88.7929 50.9239C88.8289 50.0479 88.9549 49.6099 89.1709 49.6099C89.4349 49.6099 89.6989 49.7479 89.9629 50.0239C90.2269 50.2999 90.3589 50.6059 90.3589 50.9419C90.3589 51.2659 90.2569 51.9019 90.0529 52.8499C89.8609 53.7859 89.6329 54.6619 89.3689 55.4779ZM102.351 49.6819C102.759 49.6819 103.143 49.9099 103.503 50.3659C103.863 50.8099 104.043 51.1999 104.043 51.5359C104.043 51.7399 103.947 51.8419 103.755 51.8419C103.623 51.8419 103.419 51.7399 103.143 51.5359C102.867 51.3199 102.585 51.2119 102.297 51.2119C102.009 51.2119 101.553 51.3799 100.929 51.7159C100.317 52.0519 100.011 52.4059 100.011 52.7779C100.011 53.0539 100.563 53.5279 101.667 54.1999C102.087 54.4639 102.465 54.8059 102.801 55.2259C103.149 55.6339 103.323 56.0779 103.323 56.5579C103.323 57.0259 102.993 57.4879 102.333 57.9439C101.685 58.3879 100.923 58.6099 100.047 58.6099C99.1825 58.6099 98.4145 58.3999 97.7425 57.9799C97.0825 57.5599 96.7525 57.1639 96.7525 56.7919C96.7525 56.6359 96.7885 56.5159 96.8605 56.4319C96.9445 56.3359 97.0465 56.2879 97.1665 56.2879C97.2865 56.2879 97.4545 56.3659 97.6705 56.5219C98.3185 56.9899 98.9905 57.2239 99.6865 57.2239C100.395 57.2239 100.905 57.1459 101.217 56.9899C101.529 56.8219 101.685 56.6059 101.685 56.3419C101.685 56.0659 101.511 55.7779 101.163 55.4779C100.815 55.1659 100.431 54.8899 100.011 54.6499C99.6025 54.4099 99.2245 54.1159 98.8765 53.7679C98.5285 53.4199 98.3545 53.0659 98.3545 52.7059C98.3545 52.0699 98.8525 51.4099 99.8485 50.7259C100.857 50.0299 101.691 49.6819 102.351 49.6819ZM107.441 58.4119C107.441 59.1679 107.117 59.9599 106.469 60.7879C105.821 61.6279 105.263 62.0479 104.795 62.0479C104.555 62.0479 104.435 61.9639 104.435 61.7959C104.435 61.6639 104.561 61.4479 104.813 61.1479C105.569 60.2479 105.947 59.4979 105.947 58.8979C105.947 58.7059 105.869 58.5499 105.713 58.4299C105.569 58.2979 105.419 58.1779 105.263 58.0699C105.107 57.9619 105.029 57.8299 105.029 57.6739C105.029 57.5059 105.131 57.3019 105.335 57.0619C105.539 56.8099 105.755 56.6839 105.983 56.6839C106.367 56.6839 106.703 56.8639 106.991 57.2239C107.291 57.5719 107.441 57.9679 107.441 58.4119ZM119.733 46.1539C119.733 48.4099 119.265 51.3379 118.329 54.9379C117.729 57.3859 117.309 58.6099 117.069 58.6099C116.901 58.6099 116.703 58.4779 116.475 58.2139C116.259 57.9499 116.151 57.7459 116.151 57.6019C116.151 57.4579 116.325 56.7139 116.673 55.3699C117.021 54.0259 117.369 52.3759 117.717 50.4199C118.065 48.4519 118.239 46.6819 118.239 45.1099C118.239 44.9419 118.263 44.8219 118.311 44.7499C118.359 44.6779 118.461 44.6419 118.617 44.6419C118.773 44.6419 118.995 44.8159 119.283 45.1639C119.583 45.4999 119.733 45.8299 119.733 46.1539ZM127.781 52.6699C127.781 53.3059 127.433 53.8279 126.737 54.2359C126.053 54.6319 125.273 54.8299 124.397 54.8299C123.533 54.8299 122.747 54.7339 122.039 54.5419C121.871 55.0699 121.787 55.5439 121.787 55.9639C121.787 56.3719 121.913 56.6899 122.165 56.9179C122.429 57.1459 122.855 57.2599 123.443 57.2599C124.043 57.2599 124.655 57.1579 125.279 56.9539C125.915 56.7379 126.263 56.6299 126.323 56.6299C126.635 56.6299 126.791 56.7499 126.791 56.9899C126.791 57.3139 126.425 57.6679 125.693 58.0519C124.961 58.4239 124.247 58.6099 123.551 58.6099C122.615 58.6099 121.853 58.3339 121.265 57.7819C120.677 57.2179 120.383 56.5099 120.383 55.6579C120.383 54.8059 120.611 53.9179 121.067 52.9939C121.523 52.0579 122.111 51.2719 122.831 50.6359C123.551 49.9999 124.265 49.6819 124.973 49.6819C125.681 49.6819 126.323 50.0179 126.899 50.6899C127.487 51.3619 127.781 52.0219 127.781 52.6699ZM125.063 51.1039C124.619 51.1039 124.157 51.3379 123.677 51.8059C123.197 52.2619 122.789 52.8319 122.453 53.5159C122.933 53.6239 123.479 53.6779 124.091 53.6779C124.703 53.6779 125.237 53.5819 125.693 53.3899C126.149 53.1859 126.377 52.9219 126.377 52.5979C126.377 52.2739 126.227 51.9439 125.927 51.6079C125.639 51.2719 125.351 51.1039 125.063 51.1039ZM133.491 49.6819C134.031 49.6819 134.529 49.9579 134.985 50.5099C135.441 51.0499 135.669 51.5419 135.669 51.9859C135.669 52.4179 135.519 52.8619 135.219 53.3179C135.363 53.4979 135.435 53.6539 135.435 53.7859C135.435 54.1219 135.357 54.6979 135.201 55.5139C135.057 56.3299 134.967 56.8639 134.931 57.1159C134.907 57.3679 134.883 57.5719 134.859 57.7279C134.835 57.8719 134.805 58.0159 134.769 58.1599C134.721 58.4599 134.613 58.6099 134.445 58.6099C134.229 58.6099 134.049 58.4239 133.905 58.0519C133.773 57.6679 133.695 57.1759 133.671 56.5759C132.603 57.9319 131.613 58.6099 130.701 58.6099C130.149 58.6099 129.603 58.3759 129.063 57.9079C128.535 57.4279 128.271 56.9359 128.271 56.4319C128.271 55.7119 128.535 54.8239 129.063 53.7679C129.591 52.6999 130.275 51.7519 131.115 50.9239C131.955 50.0959 132.747 49.6819 133.491 49.6819ZM134.319 52.8499C134.319 51.7339 134.097 51.1759 133.653 51.1759C133.185 51.1759 132.639 51.5119 132.015 52.1839C131.391 52.8439 130.863 53.5939 130.431 54.4339C129.999 55.2739 129.783 55.9399 129.783 56.4319C129.783 56.6359 129.867 56.8039 130.035 56.9359C130.203 57.0559 130.401 57.1159 130.629 57.1159C131.193 57.1159 131.829 56.7379 132.537 55.9819C133.245 55.2139 133.737 54.2839 134.013 53.1919C134.049 53.0119 134.151 52.9039 134.319 52.8679V52.8499ZM138.22 51.8779L138.166 50.5279C138.166 49.9639 138.298 49.6819 138.562 49.6819C138.79 49.6819 139.006 49.8319 139.21 50.1319C139.426 50.4199 139.534 50.7679 139.534 51.1759C139.534 51.5719 139.522 51.8719 139.498 52.0759C140.542 50.4919 141.532 49.6999 142.468 49.6999C143.056 49.6999 143.35 49.8439 143.35 50.1319C143.35 50.2759 143.284 50.4079 143.152 50.5279C143.02 50.6479 142.81 50.7859 142.522 50.9419C141.886 51.2179 141.346 51.6439 140.902 52.2199C140.47 52.7839 140.116 53.4259 139.84 54.1459C139.564 54.8659 139.342 55.4719 139.174 55.9639C139.018 56.4559 138.898 56.8399 138.814 57.1159C138.73 57.3919 138.634 57.6619 138.526 57.9259C138.334 58.4059 138.112 58.6459 137.86 58.6459C137.656 58.6459 137.488 58.5319 137.356 58.3039C137.236 58.0639 137.176 57.8359 137.176 57.6199C137.176 57.3919 137.278 56.9479 137.482 56.2879C137.974 54.7759 138.22 53.3059 138.22 51.8779ZM144.863 55.4779C146.015 53.5219 146.951 52.0699 147.671 51.1219C148.403 50.1619 148.997 49.6819 149.453 49.6819C149.921 49.6819 150.359 49.9279 150.767 50.4199C151.187 50.9119 151.397 51.4339 151.397 51.9859C151.397 52.8499 151.199 53.9059 150.803 55.1539C150.083 57.4579 149.435 58.6099 148.859 58.6099C148.595 58.6099 148.463 58.4299 148.463 58.0699C148.463 57.8179 148.589 57.3079 148.841 56.5399C149.105 55.7599 149.345 54.9979 149.561 54.2539C149.789 53.4979 149.903 52.9339 149.903 52.5619C149.903 52.1779 149.843 51.8959 149.723 51.7159C149.615 51.5359 149.501 51.4459 149.381 51.4459C149.273 51.4459 149.159 51.4819 149.039 51.5539C148.919 51.6259 148.781 51.7459 148.625 51.9139C148.481 52.0819 148.343 52.2499 148.211 52.4179C148.079 52.5739 147.911 52.8019 147.707 53.1019C147.515 53.4019 147.353 53.6599 147.221 53.8759C147.089 54.0799 146.897 54.3799 146.645 54.7759C146.393 55.1719 146.201 55.4719 146.069 55.6759C145.937 55.8799 145.763 56.1559 145.547 56.5039C145.331 56.8519 145.157 57.1219 145.025 57.3139C144.905 57.5059 144.767 57.7159 144.611 57.9439C144.311 58.3879 144.071 58.6099 143.891 58.6099C143.723 58.6099 143.525 58.4779 143.297 58.2139C143.069 57.9379 142.955 57.6979 142.955 57.4939C142.955 57.4339 142.997 57.2719 143.081 57.0079C143.309 56.3119 143.561 55.4539 143.837 54.4339C144.113 53.4019 144.263 52.2319 144.287 50.9239C144.323 50.0479 144.449 49.6099 144.665 49.6099C144.929 49.6099 145.193 49.7479 145.457 50.0239C145.721 50.2999 145.853 50.6059 145.853 50.9419C145.853 51.2659 145.751 51.9019 145.547 52.8499C145.355 53.7859 145.127 54.6619 144.863 55.4779ZM163.107 52.8859C162.459 54.9379 162.135 56.1799 162.135 56.6119C162.135 56.7559 162.177 56.8759 162.261 56.9719C162.357 57.0559 162.477 57.0979 162.621 57.0979C164.001 57.0979 165.525 56.8759 167.193 56.4319C167.733 56.2879 168.045 56.2159 168.129 56.2159C168.309 56.2159 168.399 56.3419 168.399 56.5939C168.399 57.0259 167.733 57.4699 166.401 57.9259C165.081 58.3819 163.803 58.6099 162.567 58.6099C162.015 58.6099 161.529 58.4479 161.109 58.1239C160.701 57.7999 160.497 57.3919 160.497 56.8999C160.497 56.4079 160.671 55.5679 161.019 54.3799C161.379 53.1919 161.739 51.9259 162.099 50.5819C162.459 49.2379 162.639 48.1039 162.639 47.1799C162.639 47.0479 162.663 46.9099 162.711 46.7659C162.915 46.3219 164.223 46.0999 166.635 46.0999C169.047 46.0999 170.253 46.2739 170.253 46.6219C170.253 46.8619 169.995 47.0239 169.479 47.1079C169.047 47.1919 168.471 47.2699 167.751 47.3419C167.043 47.4019 166.545 47.4499 166.257 47.4859C165.969 47.5099 165.273 47.6179 164.169 47.8099V47.8639C164.169 48.6799 163.947 49.9099 163.503 51.5539C163.575 51.5659 163.815 51.5719 164.223 51.5719C164.643 51.5719 165.201 51.5419 165.897 51.4819C166.593 51.4219 167.115 51.3919 167.463 51.3919C167.823 51.3919 168.003 51.4759 168.003 51.6439C168.003 52.0639 167.511 52.3759 166.527 52.5799C165.543 52.7839 164.403 52.8859 163.107 52.8859ZM172.215 55.4779C173.367 53.5219 174.303 52.0699 175.023 51.1219C175.755 50.1619 176.349 49.6819 176.805 49.6819C177.273 49.6819 177.711 49.9279 178.119 50.4199C178.539 50.9119 178.749 51.4339 178.749 51.9859C178.749 52.8499 178.551 53.9059 178.155 55.1539C177.435 57.4579 176.787 58.6099 176.211 58.6099C175.947 58.6099 175.815 58.4299 175.815 58.0699C175.815 57.8179 175.941 57.3079 176.193 56.5399C176.457 55.7599 176.697 54.9979 176.913 54.2539C177.141 53.4979 177.255 52.9339 177.255 52.5619C177.255 52.1779 177.195 51.8959 177.075 51.7159C176.967 51.5359 176.853 51.4459 176.733 51.4459C176.625 51.4459 176.511 51.4819 176.391 51.5539C176.271 51.6259 176.133 51.7459 175.977 51.9139C175.833 52.0819 175.695 52.2499 175.563 52.4179C175.431 52.5739 175.263 52.8019 175.059 53.1019C174.867 53.4019 174.705 53.6599 174.573 53.8759C174.441 54.0799 174.249 54.3799 173.997 54.7759C173.745 55.1719 173.553 55.4719 173.421 55.6759C173.289 55.8799 173.115 56.1559 172.899 56.5039C172.683 56.8519 172.509 57.1219 172.377 57.3139C172.257 57.5059 172.119 57.7159 171.963 57.9439C171.663 58.3879 171.423 58.6099 171.243 58.6099C171.075 58.6099 170.877 58.4779 170.649 58.2139C170.421 57.9379 170.307 57.6979 170.307 57.4939C170.307 57.4339 170.349 57.2719 170.433 57.0079C170.661 56.3119 170.913 55.4539 171.189 54.4339C171.465 53.4019 171.615 52.2319 171.639 50.9239C171.675 50.0479 171.801 49.6099 172.017 49.6099C172.281 49.6099 172.545 49.7479 172.809 50.0239C173.073 50.2999 173.205 50.6059 173.205 50.9419C173.205 51.2659 173.103 51.9019 172.899 52.8499C172.707 53.7859 172.479 54.6619 172.215 55.4779ZM187.176 53.7499C187.176 54.2299 186.966 54.7759 186.546 55.3879C186.222 56.1199 185.874 57.1759 185.502 58.5559C185.13 59.9239 184.818 60.9019 184.566 61.4899C184.062 62.7139 183.288 63.3259 182.244 63.3259C181.392 63.3259 180.672 63.0919 180.084 62.6239C179.508 62.1679 179.22 61.7119 179.22 61.2559C179.22 61.0639 179.28 60.8719 179.4 60.6799C179.508 60.4879 179.622 60.3919 179.742 60.3919C179.874 60.3919 180.018 60.4819 180.174 60.6619C180.33 60.8419 180.474 61.0339 180.606 61.2379C180.75 61.4539 180.96 61.6519 181.236 61.8319C181.524 62.0119 181.8 62.1019 182.064 62.1019C182.328 62.1019 182.526 62.0599 182.658 61.9759C182.79 61.9039 182.916 61.7779 183.036 61.5979C183.156 61.4299 183.258 61.2559 183.342 61.0759C183.426 60.9079 183.516 60.6619 183.612 60.3379C183.72 60.0259 183.804 59.7559 183.864 59.5279C183.924 59.2999 184.008 58.9819 184.116 58.5739C184.224 58.1539 184.314 57.8179 184.386 57.5659C183.45 58.2619 182.688 58.6099 182.1 58.6099C181.512 58.6099 181.002 58.3759 180.57 57.9079C180.138 57.4279 179.922 56.8759 179.922 56.2519C179.922 55.6159 180.156 54.7759 180.624 53.7319C181.104 52.6879 181.746 51.7519 182.55 50.9239C183.354 50.0959 184.14 49.6819 184.908 49.6819C185.4 49.6819 185.814 49.8679 186.15 50.2399C186.702 50.8519 186.978 51.7219 186.978 52.8499C186.978 52.9939 186.972 53.0959 186.96 53.1559C187.104 53.3599 187.176 53.5579 187.176 53.7499ZM181.38 56.4319C181.38 56.6359 181.446 56.8039 181.578 56.9359C181.71 57.0559 181.878 57.1159 182.082 57.1159C182.682 57.1159 183.39 56.7619 184.206 56.0539C185.022 55.3339 185.598 54.4999 185.934 53.5519C185.886 53.3959 185.844 53.1559 185.808 52.8319C185.772 52.5079 185.736 52.2499 185.7 52.0579C185.664 51.8659 185.586 51.6739 185.466 51.4819C185.346 51.2779 185.19 51.1759 184.998 51.1759C184.53 51.1759 184.002 51.5119 183.414 52.1839C182.826 52.8559 182.34 53.6059 181.956 54.4339C181.572 55.2619 181.38 55.9279 181.38 56.4319ZM192.137 46.1539C192.137 48.4099 191.669 51.3379 190.733 54.9379C190.133 57.3859 189.713 58.6099 189.473 58.6099C189.305 58.6099 189.107 58.4779 188.879 58.2139C188.663 57.9499 188.555 57.7459 188.555 57.6019C188.555 57.4579 188.729 56.7139 189.077 55.3699C189.425 54.0259 189.773 52.3759 190.121 50.4199C190.469 48.4519 190.643 46.6819 190.643 45.1099C190.643 44.9419 190.667 44.8219 190.715 44.7499C190.763 44.6779 190.865 44.6419 191.021 44.6419C191.177 44.6419 191.399 44.8159 191.687 45.1639C191.987 45.4999 192.137 45.8299 192.137 46.1539ZM195.307 47.1259C195.307 46.8859 195.403 46.6579 195.595 46.4419C195.787 46.2259 195.979 46.1179 196.171 46.1179C196.375 46.1179 196.615 46.3639 196.891 46.8559C197.167 47.3359 197.305 47.7379 197.305 48.0619C197.305 48.1819 197.251 48.2899 197.143 48.3859C197.035 48.4819 196.921 48.5299 196.801 48.5299C196.513 48.5299 196.189 48.3559 195.829 48.0079C195.481 47.6599 195.307 47.3659 195.307 47.1259ZM195.217 49.6819C195.445 49.6819 195.661 49.8199 195.865 50.0959C196.069 50.3719 196.171 50.6419 196.171 50.9059C196.171 51.1699 195.997 51.9619 195.649 53.2819C195.301 54.5899 194.863 56.0599 194.335 57.6919C194.131 58.2919 193.873 58.5919 193.561 58.5919C193.393 58.5919 193.249 58.5259 193.129 58.3939C193.009 58.2499 192.949 58.0939 192.949 57.9259C192.949 57.7459 192.991 57.4699 193.075 57.0979C193.171 56.7139 193.303 56.2099 193.471 55.5859C193.651 54.9499 193.789 54.4339 193.885 54.0379C193.993 53.6419 194.101 53.1979 194.209 52.7059C194.317 52.2019 194.401 51.7999 194.461 51.4999C194.533 51.1879 194.611 50.8759 194.695 50.5639C194.863 49.9759 195.037 49.6819 195.217 49.6819ZM202.44 49.6819C202.848 49.6819 203.232 49.9099 203.592 50.3659C203.952 50.8099 204.132 51.1999 204.132 51.5359C204.132 51.7399 204.036 51.8419 203.844 51.8419C203.712 51.8419 203.508 51.7399 203.232 51.5359C202.956 51.3199 202.674 51.2119 202.386 51.2119C202.098 51.2119 201.642 51.3799 201.018 51.7159C200.406 52.0519 200.1 52.4059 200.1 52.7779C200.1 53.0539 200.652 53.5279 201.756 54.1999C202.176 54.4639 202.554 54.8059 202.89 55.2259C203.238 55.6339 203.412 56.0779 203.412 56.5579C203.412 57.0259 203.082 57.4879 202.422 57.9439C201.774 58.3879 201.012 58.6099 200.136 58.6099C199.272 58.6099 198.504 58.3999 197.832 57.9799C197.172 57.5599 196.842 57.1639 196.842 56.7919C196.842 56.6359 196.878 56.5159 196.95 56.4319C197.034 56.3359 197.136 56.2879 197.256 56.2879C197.376 56.2879 197.544 56.3659 197.76 56.5219C198.408 56.9899 199.08 57.2239 199.776 57.2239C200.484 57.2239 200.994 57.1459 201.306 56.9899C201.618 56.8219 201.774 56.6059 201.774 56.3419C201.774 56.0659 201.6 55.7779 201.252 55.4779C200.904 55.1659 200.52 54.8899 200.1 54.6499C199.692 54.4099 199.314 54.1159 198.966 53.7679C198.618 53.4199 198.444 53.0659 198.444 52.7059C198.444 52.0699 198.942 51.4099 199.938 50.7259C200.946 50.0299 201.78 49.6819 202.44 49.6819ZM207.08 45.3439C207.08 44.8759 207.224 44.6419 207.512 44.6419C207.74 44.6419 207.98 44.8219 208.232 45.1819C208.496 45.5419 208.628 45.8899 208.628 46.2259C208.628 47.0059 208.43 48.3379 208.034 50.2219C207.65 52.0939 207.146 53.9659 206.522 55.8379C207.722 53.6659 208.724 52.0999 209.528 51.1399C210.344 50.1679 211.04 49.6819 211.616 49.6819C211.928 49.6819 212.288 49.9519 212.696 50.4919C213.116 51.0319 213.326 51.5719 213.326 52.1119C213.326 52.6519 213.176 53.4619 212.876 54.5419C212.132 57.2539 211.43 58.6099 210.77 58.6099C210.506 58.6099 210.374 58.4299 210.374 58.0699C210.374 57.7099 210.518 57.1039 210.806 56.2519C211.442 54.3919 211.76 53.1379 211.76 52.4899C211.76 52.2739 211.706 52.0939 211.598 51.9499C211.49 51.8059 211.358 51.7339 211.202 51.7339C211.046 51.7339 210.854 51.8179 210.626 51.9859C210.398 52.1539 210.122 52.4479 209.798 52.8679C209.39 53.4079 208.964 54.0139 208.52 54.6859C208.088 55.3579 207.824 55.7659 207.728 55.9099C207.644 56.0419 207.488 56.2879 207.26 56.6479C207.044 57.0079 206.882 57.2779 206.774 57.4579C206.666 57.6259 206.534 57.8119 206.378 58.0159C206.102 58.4119 205.892 58.6099 205.748 58.6099C205.604 58.6099 205.412 58.4779 205.172 58.2139C204.932 57.9379 204.812 57.7099 204.812 57.5299C204.812 57.3379 204.878 56.9839 205.01 56.4679C205.61 54.1639 205.988 52.5859 206.144 51.7339C206.768 48.6139 207.08 46.4839 207.08 45.3439ZM215.579 56.6839C215.783 56.4319 215.987 56.3059 216.191 56.3059C216.395 56.3059 216.641 56.5999 216.929 57.1879C217.217 57.7639 217.361 58.1959 217.361 58.4839C217.361 58.5679 217.301 58.6639 217.181 58.7719C217.061 58.8799 216.947 58.9339 216.839 58.9339C216.539 58.9339 216.203 58.7479 215.831 58.3759C215.459 57.9919 215.273 57.6799 215.273 57.4399C215.273 57.1879 215.375 56.9359 215.579 56.6839ZM217.901 44.2999C218.129 44.2999 218.441 44.4439 218.837 44.7319C219.233 45.0199 219.431 45.2479 219.431 45.4159C219.431 46.4359 219.167 48.2299 218.639 50.7979C218.123 53.3659 217.709 54.6499 217.397 54.6499C217.205 54.6499 217.025 54.5539 216.857 54.3619C216.689 54.1579 216.605 53.9479 216.605 53.7319C216.593 53.6599 216.665 53.2279 216.821 52.4359C216.989 51.6439 217.163 50.5339 217.343 49.1059C217.523 47.6659 217.613 46.2199 217.613 44.7679C217.613 44.4559 217.709 44.2999 217.901 44.2999Z" fill="white"/>
</g>
<defs>
<filter id="filter0_d" x="7.68164" y="7.67188" width="212.134" height="46.6191" filterUnits="userSpaceOnUse" color-interpolation-filters="sRGB">
<feFlood flood-opacity="0" result="BackgroundImageFix"/>
<feColorMatrix in="SourceAlpha" type="matrix" values="0 0 0 0 0 0 0 0 0 0 0 0 0 0 0 0 0 0 127 0"/>
<feOffset dx="4" dy="4"/>
<feGaussianBlur stdDeviation="2"/>
<feColorMatrix type="matrix" values="0 0 0 0 0.849861 0 0 0 0 0.966667 0 0 0 0 0.959658 0 0 0 0.25 0"/>
<feBlend mode="normal" in2="BackgroundImageFix" result="effect1_dropShadow"/>
<feBlend mode="normal" in="SourceGraphic" in2="effect1_dropShadow" result="shape"/>
</filter>
<filter id="filter1_d" x="0.36084" y="44.2999" width="223.07" height="27.026" filterUnits="userSpaceOnUse" color-interpolation-filters="sRGB">
<feFlood flood-opacity="0" result="BackgroundImageFix"/>
<feColorMatrix in="SourceAlpha" type="matrix" values="0 0 0 0 0 0 0 0 0 0 0 0 0 0 0 0 0 0 127 0"/>
<feOffset dy="4"/>
<feGaussianBlur stdDeviation="2"/>
<feColorMatrix type="matrix" values="0 0 0 0 0 0 0 0 0 0 0 0 0 0 0 0 0 0 0.25 0"/>
<feBlend mode="normal" in2="BackgroundImageFix" result="effect1_dropShadow"/>
<feBlend mode="normal" in="SourceGraphic" in2="effect1_dropShadow" result="shape"/>
</filter>
</defs>
</svg>
