<svg width="213" height="48" viewBox="0 0 213 48" fill="none" xmlns="http://www.w3.org/2000/svg">
<g filter="url(#filter0_d)">
<path d="M36.7871 33.1562C36.3887 33.4492 35.9551 33.6484 35.4863 33.7539C35.0293 33.8594 34.5664 33.9121 34.0977 33.9121C32.4922 33.9121 31.0625 33.6719 29.8086 33.1914C28.5664 32.7227 27.4707 32.0723 26.5215 31.2402C25.584 30.4082 24.7812 29.4297 24.1133 28.3047C23.457 27.1797 22.9062 25.9668 22.4609 24.666C22.0273 23.3652 21.6934 22.0059 21.459 20.5879C21.2246 19.1699 21.0664 17.7578 20.9844 16.3516C20.9023 14.9336 20.8789 13.5508 20.9141 12.2031C20.9609 10.8438 21.043 9.58398 21.1602 8.42383C20.9492 8.74023 20.6914 9.24414 20.3867 9.93555C20.082 10.627 19.7422 11.4355 19.3672 12.3613C19.0039 13.2871 18.623 14.3008 18.2246 15.4023C17.8262 16.4922 17.4277 17.5938 17.0293 18.707C16.6426 19.8203 16.2617 20.916 15.8867 21.9941C15.5234 23.0605 15.1953 24.0332 14.9023 24.9121C14.6211 25.791 14.375 26.5352 14.1641 27.1445C13.9648 27.7656 13.8359 28.1816 13.7773 28.3926C13.7305 28.5332 13.666 28.709 13.584 28.9199C13.5137 29.1309 13.4199 29.3359 13.3027 29.5352C13.1973 29.7344 13.0684 29.9043 12.916 30.0449C12.7754 30.1855 12.6113 30.2559 12.4238 30.2559C12.2129 30.2559 12.0371 30.168 11.8965 29.9922C11.7559 29.8281 11.6387 29.6289 11.5449 29.3945C11.4629 29.1602 11.3926 28.9258 11.334 28.6914C11.2871 28.457 11.252 28.2695 11.2285 28.1289C11.1582 27.6367 11.0938 27.0156 11.0352 26.2656C10.9766 25.5156 10.9238 24.6836 10.877 23.7695C10.8418 22.8555 10.8125 21.8828 10.7891 20.8516C10.7656 19.8086 10.7422 18.7656 10.7188 17.7227C10.707 16.668 10.6953 15.6367 10.6836 14.6289C10.6836 13.6094 10.6777 12.6602 10.666 11.7812C10.666 10.8906 10.666 10.0938 10.666 9.39062C10.666 8.6875 10.666 8.125 10.666 7.70312C10.4082 8.28906 10.0977 9.0332 9.73438 9.93555C9.38281 10.8379 8.99609 11.8516 8.57422 12.9766C8.16406 14.1016 7.73047 15.3145 7.27344 16.6152C6.82812 17.9043 6.38281 19.2344 5.9375 20.6055C5.50391 21.9766 5.08203 23.3594 4.67188 24.7539C4.27344 26.1484 3.91602 27.502 3.59961 28.8145C3.56445 28.9316 3.51758 29.0723 3.45898 29.2363C3.41211 29.4121 3.34766 29.5762 3.26562 29.7285C3.18359 29.8809 3.07812 30.0098 2.94922 30.1152C2.83203 30.2324 2.68555 30.291 2.50977 30.291C2.3457 30.291 2.19922 30.2383 2.07031 30.1328C1.94141 30.0273 1.83008 29.8984 1.73633 29.7461C1.6543 29.6055 1.58398 29.4473 1.52539 29.2715C1.47852 29.1074 1.44922 28.9551 1.4375 28.8145C1.37891 28.5215 1.32617 28.1992 1.2793 27.8477C1.24414 27.4961 1.20898 27.1328 1.17383 26.7578C1.15039 26.3945 1.12695 26.0312 1.10352 25.668C1.08008 25.3164 1.05664 24.9883 1.0332 24.6836C0.904297 23.0781 0.810547 21.4902 0.751953 19.9199C0.705078 18.3496 0.681641 16.7676 0.681641 15.1738C0.681641 13.6035 0.705078 12.0449 0.751953 10.498C0.810547 8.95117 0.892578 7.38672 0.998047 5.80469C1.0332 5.34766 1.08594 4.83789 1.15625 4.27539C1.22656 3.70117 1.36133 3.16211 1.56055 2.6582C1.77148 2.1543 2.07031 1.73242 2.45703 1.39258C2.85547 1.05273 3.39453 0.882812 4.07422 0.882812C4.23828 0.882812 4.37891 0.923828 4.49609 1.00586C4.61328 1.07617 4.67188 1.20508 4.67188 1.39258V1.56836C4.56641 2.27148 4.46094 2.97461 4.35547 3.67773C4.25 4.36914 4.13867 5.07813 4.02148 5.80469C3.74023 8.14844 3.5 10.4922 3.30078 12.8359C3.11328 15.168 3.01953 17.5176 3.01953 19.8848C3.01953 20.8105 3.03711 21.7246 3.07227 22.627C3.10742 23.5293 3.17188 24.4375 3.26562 25.3516C4.07422 22.8438 4.7832 20.623 5.39258 18.6895C6.01367 16.7559 6.55859 15.0625 7.02734 13.6094C7.49609 12.1562 7.88867 10.9199 8.20508 9.90039C8.5332 8.86914 8.80859 8.00781 9.03125 7.31641C9.25391 6.625 9.42969 6.07422 9.55859 5.66406C9.6875 5.24219 9.79297 4.91992 9.875 4.69727C9.95703 4.46289 10.0156 4.29297 10.0508 4.1875C10.0859 4.08203 10.1211 3.98828 10.1562 3.90625C10.332 3.50781 10.5723 3.15039 10.877 2.83398C11.1816 2.51758 11.5742 2.35938 12.0547 2.35938C12.3828 2.35938 12.6465 2.44141 12.8457 2.60547C13.0566 2.76953 13.2207 2.97461 13.3379 3.2207C13.4551 3.4668 13.5312 3.73633 13.5664 4.0293C13.6133 4.32227 13.6367 4.5918 13.6367 4.83789C13.6133 6.6543 13.5605 8.45312 13.4785 10.2344C13.3965 12.0039 13.3262 13.7617 13.2676 15.5078C13.209 17.2539 13.1797 18.9883 13.1797 20.7109C13.1914 22.4336 13.2734 24.1504 13.4258 25.8613C13.8945 24.4785 14.3281 23.1777 14.7266 21.959C15.125 20.7285 15.5 19.5566 15.8516 18.4434C16.2148 17.3301 16.5605 16.2578 16.8887 15.2266C17.2285 14.1953 17.5742 13.1758 17.9258 12.168C18.2891 11.1602 18.6641 10.1523 19.0508 9.14453C19.4375 8.13672 19.8652 7.09961 20.334 6.0332C20.4395 5.82227 20.5566 5.61133 20.6855 5.40039C20.8145 5.17773 20.9609 4.97852 21.125 4.80273C21.2891 4.62695 21.4766 4.48047 21.6875 4.36328C21.8984 4.24609 22.1328 4.1875 22.3906 4.1875C22.7539 4.1875 23.041 4.30469 23.252 4.53906C23.4629 4.77344 23.6211 5.05469 23.7266 5.38281C23.8438 5.71094 23.9199 6.05664 23.9551 6.41992C23.9902 6.77148 24.0078 7.07031 24.0078 7.31641C24.0078 8.39453 23.9727 9.58984 23.9023 10.9023C23.832 12.2031 23.7793 13.5566 23.7441 14.9629C23.7207 16.3691 23.7383 17.793 23.7969 19.2344C23.8555 20.6758 24.0137 22.0703 24.2715 23.418C24.5293 24.7656 24.9102 26.0254 25.4141 27.1973C25.918 28.3691 26.5977 29.3887 27.4531 30.2559C28.3086 31.1348 29.3633 31.8262 30.6172 32.3301C31.8828 32.834 33.4004 33.0859 35.1699 33.0859C35.4395 33.0859 35.6973 33.0625 35.9434 33.0156C36.2012 32.9805 36.4473 32.9102 36.6816 32.8047L36.7871 33.1562ZM39.1791 15.7891C39.1791 15.918 39.1323 16.0352 39.0385 16.1406C38.9448 16.2344 38.8334 16.2812 38.7045 16.2812C38.5991 16.2812 38.4877 16.252 38.3705 16.1934C38.2534 16.123 38.1186 16.0469 37.9662 15.9648C37.8256 15.8828 37.6557 15.8125 37.4565 15.7539C37.269 15.6836 37.0522 15.6484 36.8061 15.6484C36.2319 15.6484 35.7162 15.8301 35.2592 16.1934C34.8139 16.5449 34.433 16.9844 34.1166 17.5117C33.812 18.0391 33.5776 18.6016 33.4135 19.1992C33.2495 19.7969 33.1674 20.3359 33.1674 20.8164C33.1674 21.1562 33.1967 21.4902 33.2553 21.8184C33.3139 22.1348 33.4135 22.4277 33.5541 22.6973C33.7065 22.9551 33.9116 23.166 34.1694 23.3301C34.4272 23.4824 34.7553 23.5586 35.1537 23.5586C35.5756 23.5586 35.9799 23.4824 36.3666 23.3301C36.7534 23.166 37.1166 22.9551 37.4565 22.6973C37.4682 22.3223 37.5268 21.9297 37.6323 21.5195C37.7495 21.0977 37.8959 20.6875 38.0717 20.2891C38.2475 19.8789 38.4467 19.4922 38.6694 19.1289C38.9037 18.7656 39.144 18.4434 39.3901 18.1621L39.6186 18.3027C39.4897 18.7012 39.3959 19.1113 39.3373 19.5332C39.2787 19.9551 39.2495 20.3711 39.2495 20.7812C39.2495 21.2031 39.2846 21.6016 39.3549 21.9766C39.4252 22.3516 39.5483 22.6797 39.7241 22.9609C39.8998 23.2305 40.1401 23.4473 40.4448 23.6113C40.7495 23.7637 41.142 23.8398 41.6225 23.8398C42.2084 23.8398 42.7475 23.7051 43.2397 23.4355C43.7319 23.166 44.1655 22.8262 44.5405 22.416L44.6811 22.4863C44.4702 22.8965 44.1948 23.2891 43.8549 23.6641C43.5151 24.0391 43.1342 24.3789 42.7123 24.6836C42.3022 24.9766 41.8627 25.2109 41.394 25.3867C40.9252 25.5625 40.4623 25.6504 40.0053 25.6504C39.3608 25.6504 38.8334 25.4629 38.4233 25.0879C38.0131 24.7246 37.7319 24.2617 37.5795 23.6992C37.0873 24.1914 36.5366 24.6074 35.9272 24.9473C35.3295 25.2754 34.6967 25.4395 34.0287 25.4395C33.5366 25.4395 33.0971 25.3457 32.7104 25.1582C32.3354 24.9824 32.019 24.7422 31.7612 24.4375C31.5034 24.1328 31.3041 23.7754 31.1635 23.3652C31.0346 22.9434 30.9702 22.5039 30.9702 22.0469C30.9702 21.5195 31.0522 20.9805 31.2162 20.4297C31.392 19.8672 31.6264 19.3164 31.9194 18.7773C32.2241 18.2383 32.5815 17.7285 32.9916 17.248C33.4018 16.7676 33.8471 16.3457 34.3276 15.9824C34.8198 15.6191 35.3354 15.332 35.8745 15.1211C36.4135 14.9102 36.9643 14.8047 37.5268 14.8047C37.6557 14.8047 37.8139 14.8223 38.0014 14.8574C38.1889 14.8809 38.3705 14.9277 38.5463 14.998C38.7221 15.0684 38.8686 15.168 38.9858 15.2969C39.1147 15.4258 39.1791 15.5898 39.1791 15.7891ZM56.2489 30.3965C56.2489 31.3457 56.1376 32.3125 55.9149 33.2969C55.6923 34.293 55.3407 35.207 54.8602 36.0391C54.3798 36.8711 53.7587 37.5742 52.997 38.1484C52.247 38.7227 51.3387 39.0801 50.2723 39.2207C50.1669 39.2441 50.0673 39.2617 49.9735 39.2734C49.8798 39.2852 49.7743 39.291 49.6571 39.291C49.0126 39.291 48.4032 39.1621 47.829 38.9043C47.2548 38.6465 46.7509 38.2949 46.3173 37.8496C45.8954 37.416 45.5614 36.9062 45.3153 36.3203C45.0692 35.7461 44.9462 35.1426 44.9462 34.5098C44.9462 33.8066 45.0927 33.1328 45.3856 32.4883C45.6669 31.8438 46.0419 31.2461 46.5106 30.6953C46.9794 30.1562 47.5067 29.6758 48.0927 29.2539C48.6903 28.8438 49.2997 28.5156 49.9208 28.2695L50.0262 28.498C48.8895 29.1074 48.0106 29.9453 47.3895 31.0117C46.7684 32.0781 46.4579 33.2559 46.4579 34.5449C46.4579 35.0723 46.5282 35.582 46.6688 36.0742C46.8212 36.5781 47.0438 37.0176 47.3368 37.3926C47.6298 37.7676 47.993 38.0664 48.4266 38.2891C48.872 38.5234 49.3817 38.6406 49.9559 38.6406C50.7645 38.6406 51.4384 38.4297 51.9774 38.0078C52.5165 37.5859 52.9442 37.0586 53.2606 36.4258C53.5887 35.793 53.8173 35.1016 53.9462 34.3516C54.0868 33.6133 54.1571 32.9219 54.1571 32.2773C54.1571 31.7148 54.122 31.1641 54.0516 30.625C53.9813 30.0859 53.9052 29.5469 53.8231 29.0078C53.7528 28.4805 53.6825 27.9473 53.6122 27.4082C53.5419 26.8691 53.5067 26.3184 53.5067 25.7559C53.5067 25.3574 53.5184 24.9473 53.5419 24.5254C53.577 24.1035 53.6356 23.6758 53.7177 23.2422C53.202 23.8516 52.6044 24.373 51.9247 24.8066C51.2567 25.2285 50.536 25.4395 49.7626 25.4395C49.2821 25.4395 48.8485 25.3457 48.4618 25.1582C48.0868 24.9824 47.7645 24.7422 47.495 24.4375C47.2372 24.1328 47.038 23.7754 46.8973 23.3652C46.7684 22.9434 46.704 22.5039 46.704 22.0469C46.704 21.5195 46.786 20.9746 46.9501 20.4121C47.1259 19.8379 47.3602 19.2871 47.6532 18.7598C47.9579 18.2207 48.3153 17.7168 48.7255 17.248C49.1356 16.7676 49.5809 16.3516 50.0614 16C50.5536 15.6367 51.0692 15.3555 51.6083 15.1562C52.1473 14.9453 52.6981 14.8398 53.2606 14.8398C53.5419 14.8398 53.8231 14.8809 54.1044 14.9629C54.3973 15.0332 54.661 15.1445 54.8954 15.2969C55.1415 15.4492 55.3348 15.6426 55.4755 15.877C55.6278 16.1113 55.704 16.3926 55.704 16.7207C55.704 16.9551 55.6512 17.166 55.5458 17.3535C55.4403 17.541 55.3055 17.7109 55.1415 17.8633C54.9774 18.0039 54.7958 18.1328 54.5966 18.25C54.3973 18.3672 54.204 18.4668 54.0165 18.5488L53.9462 18.3379C54.0399 18.2324 54.1044 18.1035 54.1395 17.9512C54.1747 17.7988 54.1923 17.6523 54.1923 17.5117C54.1923 17.3008 54.1571 17.0898 54.0868 16.8789C54.0282 16.6562 53.9345 16.457 53.8055 16.2812C53.6884 16.0938 53.536 15.9414 53.3485 15.8242C53.161 15.707 52.9501 15.6484 52.7157 15.6484C52.118 15.6484 51.579 15.8125 51.0985 16.1406C50.618 16.457 50.2079 16.8613 49.868 17.3535C49.5399 17.8457 49.2821 18.3848 49.0946 18.9707C48.9188 19.5449 48.8309 20.0898 48.8309 20.6055C48.8309 20.9453 48.8602 21.291 48.9188 21.6426C48.9891 21.9941 49.1005 22.3105 49.2528 22.5918C49.4052 22.873 49.6102 23.1074 49.868 23.2949C50.1376 23.4707 50.4774 23.5586 50.8876 23.5586C51.5204 23.5586 52.1063 23.3945 52.6454 23.0664C53.1845 22.7266 53.6649 22.3281 54.0868 21.8711C54.2509 21.4023 54.4618 20.9629 54.7196 20.5527C54.9891 20.1309 55.3173 19.7676 55.704 19.4629L56.0028 19.6738C55.7333 20.1074 55.5575 20.5996 55.4755 21.1504C55.3934 21.7012 55.3524 22.2402 55.3524 22.7676C55.3524 23.3887 55.3993 24.0098 55.493 24.6309C55.5868 25.252 55.6864 25.8789 55.7919 26.5117C55.9091 27.1445 56.0145 27.7832 56.1083 28.4277C56.202 29.0723 56.2489 29.7285 56.2489 30.3965ZM65.0921 10.8145C65.0921 11.0488 65.0394 11.2832 64.9339 11.5176C64.8284 11.752 64.6878 11.9629 64.512 12.1504C64.348 12.3262 64.1546 12.4727 63.932 12.5898C63.7093 12.707 63.4808 12.7656 63.2464 12.7656C62.9417 12.7656 62.6956 12.666 62.5081 12.4668C62.3323 12.2676 62.2445 12.0156 62.2445 11.7109C62.2445 11.4766 62.2972 11.248 62.4027 11.0254C62.5081 10.791 62.6429 10.5859 62.807 10.4102C62.9827 10.2344 63.1761 10.0938 63.387 9.98828C63.6097 9.87109 63.8382 9.8125 64.0726 9.8125C64.3773 9.8125 64.6234 9.90625 64.8109 10.0938C64.9984 10.2812 65.0921 10.5215 65.0921 10.8145ZM70.014 22.4863C69.7445 22.9316 69.4222 23.3418 69.0472 23.7168C68.6839 24.0801 68.2796 24.4023 67.8343 24.6836C67.4007 24.9531 66.932 25.1641 66.428 25.3164C65.9359 25.4688 65.4261 25.5449 64.8988 25.5449C64.2425 25.5449 63.6566 25.4336 63.1409 25.2109C62.637 24.9883 62.2093 24.6836 61.8577 24.2969C61.5179 23.8984 61.2542 23.4355 61.0667 22.9082C60.8909 22.3691 60.803 21.7832 60.803 21.1504C60.803 20.4707 60.9027 19.8262 61.1019 19.2168C61.3011 18.6074 61.5765 18.0391 61.928 17.5117C62.2796 16.9727 62.6898 16.4805 63.1585 16.0352C63.639 15.5898 64.1488 15.1914 64.6878 14.8398L64.8988 14.998C64.3245 15.6777 63.8558 16.4395 63.4925 17.2832C63.1409 18.127 62.9652 19.0059 62.9652 19.9199C62.9652 20.4473 63.0238 20.957 63.1409 21.4492C63.2698 21.9297 63.4632 22.3574 63.721 22.7324C63.9905 23.1074 64.3304 23.4062 64.7405 23.6289C65.1507 23.8516 65.6488 23.9629 66.2347 23.9629C66.9261 23.9629 67.5823 23.8164 68.2034 23.5234C68.8363 23.2305 69.4046 22.8613 69.9085 22.416L70.014 22.4863ZM83.3045 22.4863C82.9998 22.9902 82.6013 23.4414 82.1091 23.8398C81.6287 24.2266 81.0955 24.5605 80.5095 24.8418C79.9353 25.1113 79.3318 25.3164 78.699 25.457C78.0779 25.6094 77.4802 25.6855 76.906 25.6855C76.2029 25.6855 75.5466 25.5801 74.9373 25.3691C74.3396 25.1582 73.8123 24.8535 73.3552 24.4551C72.9099 24.0449 72.5584 23.5586 72.3005 22.9961C72.0545 22.4219 71.9314 21.7715 71.9314 21.0449C71.9314 20.2246 72.0779 19.4219 72.3709 18.6367C72.6755 17.8516 73.0916 17.1543 73.6189 16.5449C74.158 15.9355 74.7908 15.4492 75.5173 15.0859C76.2556 14.7109 77.0525 14.5234 77.908 14.5234C78.1892 14.5234 78.4705 14.5527 78.7517 14.6113C79.033 14.6699 79.2908 14.7695 79.5252 14.9102C79.7595 15.0391 79.947 15.2148 80.0877 15.4375C80.24 15.6602 80.3162 15.9414 80.3162 16.2812C80.3162 16.6211 80.2283 16.9199 80.0525 17.1777C79.8767 17.4238 79.6541 17.6289 79.3845 17.793C79.115 17.957 78.822 18.0918 78.5056 18.1973C78.2009 18.291 77.908 18.3613 77.6267 18.4082V18.1621C77.7908 18.1152 77.9666 18.0508 78.1541 17.9688C78.3533 17.8867 78.5349 17.7812 78.699 17.6523C78.863 17.5234 78.9978 17.3711 79.1033 17.1953C79.2205 17.0195 79.2791 16.8262 79.2791 16.6152C79.2791 16.4512 79.238 16.3164 79.156 16.2109C79.0857 16.0938 78.992 16 78.8748 15.9297C78.7693 15.8594 78.6462 15.8066 78.5056 15.7715C78.365 15.7363 78.2244 15.7188 78.0837 15.7188C77.4861 15.7188 76.947 15.8535 76.4666 16.123C75.9978 16.3809 75.5994 16.7266 75.2712 17.1602C74.9431 17.5938 74.6912 18.0801 74.5154 18.6191C74.3513 19.1582 74.2693 19.7031 74.2693 20.2539C74.2693 20.8867 74.363 21.4551 74.5505 21.959C74.7498 22.4512 75.0252 22.873 75.3767 23.2246C75.7283 23.5762 76.156 23.8457 76.6599 24.0332C77.1638 24.2207 77.7263 24.3145 78.3474 24.3145C78.7459 24.3145 79.1677 24.2734 79.613 24.1914C80.0701 24.0977 80.5095 23.9688 80.9314 23.8047C81.365 23.6406 81.7752 23.4414 82.1619 23.207C82.5486 22.9727 82.8826 22.709 83.1638 22.416L83.3045 22.4863ZM104.77 5.08398C104.77 5.20117 104.753 5.30664 104.717 5.40039C104.694 5.48242 104.665 5.57031 104.63 5.66406C104.43 6.13281 104.219 6.5957 103.997 7.05273C103.786 7.49805 103.61 7.97266 103.469 8.47656C103.106 9.80078 102.813 11.1777 102.59 12.6074C102.38 14.0254 102.227 15.4844 102.133 16.9844C103.083 17.0078 104.079 17.125 105.122 17.3359C106.165 17.5469 107.178 17.8574 108.163 18.2676C108.901 17.8223 109.575 17.3066 110.184 16.7207C110.805 16.1348 111.333 15.4844 111.766 14.7695C112.212 14.0547 112.551 13.2871 112.786 12.4668C113.032 11.6465 113.143 10.7852 113.12 9.88281C113.12 8.53516 112.885 7.32812 112.417 6.26172C111.96 5.19531 111.344 4.29297 110.571 3.55469C109.809 2.81641 108.936 2.25391 107.952 1.86719C106.967 1.46875 105.954 1.26953 104.911 1.26953C104.184 1.26953 103.428 1.4043 102.643 1.67383C101.858 1.94336 101.143 2.31836 100.499 2.79883C99.8541 3.2793 99.3209 3.85937 98.8991 4.53906C98.4889 5.21875 98.2838 5.96875 98.2838 6.78906C98.2838 7.10547 98.319 7.39258 98.3893 7.65039C98.4713 7.9082 98.5534 8.14258 98.6354 8.35352C98.7291 8.56445 98.8112 8.76367 98.8815 8.95117C98.9635 9.12695 99.0045 9.30273 99.0045 9.47852C99.0045 9.81836 98.8873 10.1055 98.653 10.3398C98.4303 10.5625 98.1549 10.6738 97.8268 10.6738C97.5221 10.6738 97.2819 10.5918 97.1061 10.4277C96.9303 10.2637 96.7897 10.0586 96.6842 9.8125C96.5905 9.56641 96.526 9.30859 96.4909 9.03906C96.4674 8.75781 96.4557 8.51172 96.4557 8.30078C96.4557 7.26953 96.6959 6.33789 97.1764 5.50586C97.6686 4.66211 98.3073 3.91211 99.0924 3.25586C99.5846 2.83398 100.077 2.46484 100.569 2.14844C101.073 1.82031 101.589 1.55078 102.116 1.33984C102.643 1.11719 103.194 0.953125 103.768 0.847656C104.354 0.730469 104.975 0.671875 105.631 0.671875C107.214 0.671875 108.637 0.90625 109.903 1.375C111.169 1.83203 112.241 2.46484 113.12 3.27344C113.999 4.07031 114.673 5.00195 115.141 6.06836C115.622 7.13477 115.862 8.27148 115.862 9.47852C115.862 10.5918 115.692 11.623 115.352 12.5723C115.012 13.5098 114.549 14.3711 113.964 15.1562C113.378 15.9297 112.686 16.6211 111.889 17.2305C111.092 17.8398 110.231 18.3672 109.305 18.8125C109.903 19.1406 110.454 19.5156 110.958 19.9375C111.473 20.3477 111.919 20.8164 112.294 21.3438C112.669 21.8594 112.962 22.4277 113.173 23.0488C113.383 23.6699 113.489 24.3438 113.489 25.0703C113.489 25.8672 113.331 26.6172 113.014 27.3203C112.698 28.0352 112.27 28.6621 111.731 29.2012C111.192 29.752 110.565 30.1855 109.85 30.502C109.147 30.8184 108.403 30.9766 107.618 30.9766C107.161 30.9766 106.68 30.8887 106.176 30.7129C105.673 30.5488 105.192 30.3262 104.735 30.0449C104.278 29.7637 103.856 29.4414 103.469 29.0781C103.083 28.7148 102.772 28.3398 102.538 27.9531L102.784 27.7422C103.381 28.2461 104.061 28.6504 104.823 28.9551C105.596 29.2715 106.37 29.4297 107.143 29.4297C107.741 29.3359 108.274 29.125 108.743 28.7969C109.223 28.4688 109.628 28.0645 109.956 27.584C110.284 27.1152 110.53 26.5938 110.694 26.0195C110.87 25.457 110.958 24.8887 110.958 24.3145C110.958 23.1543 110.7 22.1641 110.184 21.3438C109.68 20.5234 109.024 19.8438 108.215 19.3047C107.208 19.7031 106.176 20.002 105.122 20.2012C104.067 20.4004 103.024 20.5117 101.993 20.5352C101.969 22.3867 101.993 24.2031 102.063 25.9844C102.145 27.7773 102.245 29.4766 102.362 31.082L102.028 31.1875C101.735 30.4141 101.483 29.5879 101.272 28.709C101.061 27.8301 100.885 26.9277 100.745 26.002C100.604 25.0762 100.487 24.1445 100.393 23.207C100.311 22.2578 100.253 21.3262 100.217 20.4121C99.9362 20.3652 99.6491 20.3008 99.3561 20.2188C99.0748 20.125 98.817 20.0137 98.5827 19.8848C98.36 19.7441 98.1784 19.5801 98.0377 19.3926C97.8971 19.2051 97.8268 18.9766 97.8268 18.707C97.8268 18.4375 97.8913 18.209 98.0202 18.0215C98.1608 17.834 98.3424 17.6758 98.5651 17.5469C98.7877 17.4062 99.0397 17.3008 99.3209 17.2305C99.6022 17.1484 99.8834 17.0898 100.165 17.0547C100.165 16.5625 100.171 15.959 100.182 15.2441C100.194 14.5293 100.223 13.7734 100.27 12.9766C100.329 12.168 100.411 11.3535 100.516 10.5332C100.633 9.70117 100.798 8.92188 101.008 8.19531C101.219 7.46875 101.483 6.82422 101.799 6.26172C102.116 5.69922 102.508 5.2832 102.977 5.01367C103.153 4.9082 103.346 4.81445 103.557 4.73242C103.768 4.63867 103.991 4.5918 104.225 4.5918C104.589 4.5918 104.77 4.75586 104.77 5.08398ZM102.01 20.0605C102.924 20.0488 103.827 19.9316 104.717 19.709C105.62 19.4863 106.475 19.1699 107.284 18.7598C106.499 18.373 105.655 18.0859 104.753 17.8984C103.862 17.6992 102.977 17.5762 102.098 17.5293C102.075 17.9512 102.057 18.373 102.046 18.7949C102.034 19.2168 102.022 19.6387 102.01 20.0605ZM98.4772 18.584C98.4772 18.7598 98.5241 18.918 98.6178 19.0586C98.7233 19.1875 98.8522 19.3047 99.0045 19.4102C99.1686 19.5156 99.3502 19.6094 99.5495 19.6914C99.7604 19.7617 99.9772 19.8203 100.2 19.8672C100.188 19.4688 100.176 19.082 100.165 18.707C100.165 18.332 100.165 17.957 100.165 17.582C99.9538 17.6055 99.7487 17.6465 99.5495 17.7051C99.3502 17.752 99.1686 17.8164 99.0045 17.8984C98.8522 17.9688 98.7233 18.0625 98.6178 18.1797C98.5241 18.2969 98.4772 18.4316 98.4772 18.584ZM133.371 22.4863C133.172 22.8965 132.902 23.2891 132.563 23.6641C132.223 24.0391 131.842 24.3789 131.42 24.6836C130.998 24.9766 130.553 25.2109 130.084 25.3867C129.615 25.5625 129.152 25.6504 128.695 25.6504C128.063 25.6504 127.535 25.457 127.113 25.0703C126.703 24.6953 126.399 24.2383 126.199 23.6992C125.742 24.1562 125.238 24.5371 124.688 24.8418C124.137 25.1348 123.527 25.2812 122.859 25.2812C122.262 25.2812 121.729 25.1758 121.26 24.9648C120.803 24.7422 120.422 24.4434 120.117 24.0684C119.813 23.6934 119.578 23.2598 119.414 22.7676C119.262 22.2754 119.186 21.748 119.186 21.1855C119.186 20.5527 119.274 19.9375 119.449 19.3398C119.625 18.7305 119.871 18.1562 120.188 17.6172C120.504 17.0664 120.879 16.5566 121.313 16.0879C121.746 15.6191 122.215 15.2031 122.719 14.8398L122.93 14.998C122.438 15.7012 122.045 16.4805 121.752 17.3359C121.459 18.1797 121.313 19.041 121.313 19.9199C121.313 20.2949 121.354 20.6934 121.436 21.1152C121.518 21.5371 121.652 21.9297 121.84 22.293C122.027 22.6562 122.274 22.9609 122.578 23.207C122.895 23.4414 123.287 23.5586 123.756 23.5586C124.154 23.5586 124.535 23.4941 124.899 23.3652C125.262 23.2246 125.613 23.0371 125.953 22.8027C125.93 22.6621 125.912 22.5273 125.9 22.3984C125.889 22.2578 125.883 22.1172 125.883 21.9766C125.883 21.4141 125.965 20.8047 126.129 20.1484C126.293 19.4922 126.51 18.8418 126.779 18.1973C127.049 17.541 127.354 16.9199 127.693 16.334C128.045 15.7363 128.402 15.2266 128.766 14.8047L128.977 14.9629C128.707 15.8652 128.484 16.7969 128.309 17.7578C128.133 18.7188 128.045 19.668 128.045 20.6055C128.045 21.0273 128.068 21.4375 128.115 21.8359C128.174 22.2227 128.285 22.5742 128.449 22.8906C128.625 23.1953 128.865 23.4414 129.17 23.6289C129.475 23.8047 129.879 23.8926 130.383 23.8926C130.945 23.8926 131.473 23.752 131.965 23.4707C132.457 23.1777 132.891 22.8262 133.266 22.416L133.371 22.4863ZM147.013 22.4863C146.755 22.9199 146.451 23.3242 146.099 23.6992C145.759 24.0742 145.378 24.4023 144.957 24.6836C144.546 24.9648 144.101 25.1816 143.621 25.334C143.14 25.498 142.642 25.5801 142.126 25.5801C141.365 25.5801 140.691 25.4512 140.105 25.1934C139.531 24.9355 139.033 24.5898 138.611 24.1562C138.189 23.7109 137.837 23.1953 137.556 22.6094C137.275 22.0234 137.052 21.4141 136.888 20.7812C136.724 20.1367 136.607 19.4805 136.537 18.8125C136.466 18.1445 136.431 17.5059 136.431 16.8965C136.431 16.334 136.455 15.7598 136.501 15.1738C136.548 14.5762 136.619 13.9668 136.712 13.3457C136.349 13.3574 135.992 13.3633 135.64 13.3633C135.3 13.3633 134.96 13.3633 134.621 13.3633C134.398 13.3633 134.146 13.3574 133.865 13.3457C133.584 13.334 133.32 13.2871 133.074 13.2051C132.828 13.123 132.623 13 132.459 12.8359C132.294 12.6719 132.212 12.4316 132.212 12.1152C132.212 11.9395 132.248 11.7988 132.318 11.6934C132.376 11.5879 132.464 11.5117 132.582 11.4648C132.687 11.4062 132.816 11.3711 132.968 11.3594C133.109 11.3359 133.255 11.3242 133.408 11.3242C133.584 11.3242 134 11.3535 134.656 11.4121C135.312 11.4707 136.103 11.5352 137.029 11.6055C137.322 10.2227 137.697 8.86328 138.154 7.52734C138.623 6.19141 139.15 4.97266 139.736 3.87109H139.982C139.607 5.14844 139.273 6.4375 138.98 7.73828C138.699 9.03906 138.488 10.3574 138.347 11.6934C139.203 11.752 140.082 11.8047 140.984 11.8516C141.898 11.8867 142.789 11.9043 143.656 11.9043C144.933 11.9043 145.97 11.8926 146.767 11.8691C147.564 11.8457 148.191 11.8164 148.648 11.7812C149.187 11.7344 149.591 11.6875 149.861 11.6406L149.931 11.9395C149.228 12.1035 148.425 12.2617 147.523 12.4141C146.621 12.5547 145.66 12.6836 144.64 12.8008C143.621 12.9062 142.566 13 141.476 13.082C140.386 13.1641 139.302 13.2285 138.224 13.2754C138.201 13.5098 138.189 13.75 138.189 13.9961C138.189 14.2305 138.189 14.4648 138.189 14.6992C138.189 15.2617 138.212 15.8828 138.259 16.5625C138.318 17.2422 138.417 17.9277 138.558 18.6191C138.699 19.2988 138.886 19.9668 139.121 20.623C139.367 21.2676 139.683 21.8418 140.07 22.3457C140.468 22.8379 140.943 23.2363 141.494 23.541C142.044 23.8457 142.695 23.998 143.445 23.998C144.136 23.998 144.757 23.8457 145.308 23.541C145.871 23.2363 146.404 22.8613 146.908 22.416L147.013 22.4863ZM160.761 22.4863C160.503 22.9199 160.198 23.3242 159.847 23.6992C159.507 24.0742 159.126 24.4023 158.704 24.6836C158.294 24.9648 157.849 25.1816 157.368 25.334C156.888 25.498 156.39 25.5801 155.874 25.5801C155.112 25.5801 154.438 25.4512 153.852 25.1934C153.278 24.9355 152.78 24.5898 152.358 24.1562C151.936 23.7109 151.585 23.1953 151.304 22.6094C151.022 22.0234 150.8 21.4141 150.636 20.7812C150.472 20.1367 150.354 19.4805 150.284 18.8125C150.214 18.1445 150.179 17.5059 150.179 16.8965C150.179 16.334 150.202 15.7598 150.249 15.1738C150.296 14.5762 150.366 13.9668 150.46 13.3457C150.097 13.3574 149.739 13.3633 149.388 13.3633C149.048 13.3633 148.708 13.3633 148.368 13.3633C148.145 13.3633 147.894 13.3574 147.612 13.3457C147.331 13.334 147.067 13.2871 146.821 13.2051C146.575 13.123 146.37 13 146.206 12.8359C146.042 12.6719 145.96 12.4316 145.96 12.1152C145.96 11.9395 145.995 11.7988 146.065 11.6934C146.124 11.5879 146.212 11.5117 146.329 11.4648C146.435 11.4062 146.563 11.3711 146.716 11.3594C146.856 11.3359 147.003 11.3242 147.155 11.3242C147.331 11.3242 147.747 11.3535 148.403 11.4121C149.06 11.4707 149.851 11.5352 150.776 11.6055C151.069 10.2227 151.444 8.86328 151.901 7.52734C152.37 6.19141 152.897 4.97266 153.483 3.87109H153.729C153.354 5.14844 153.02 6.4375 152.727 7.73828C152.446 9.03906 152.235 10.3574 152.095 11.6934C152.95 11.752 153.829 11.8047 154.731 11.8516C155.645 11.8867 156.536 11.9043 157.403 11.9043C158.681 11.9043 159.718 11.8926 160.515 11.8691C161.311 11.8457 161.938 11.8164 162.395 11.7812C162.935 11.7344 163.339 11.6875 163.608 11.6406L163.679 11.9395C162.976 12.1035 162.173 12.2617 161.27 12.4141C160.368 12.5547 159.407 12.6836 158.388 12.8008C157.368 12.9062 156.313 13 155.224 13.082C154.134 13.1641 153.05 13.2285 151.972 13.2754C151.948 13.5098 151.936 13.75 151.936 13.9961C151.936 14.2305 151.936 14.4648 151.936 14.6992C151.936 15.2617 151.96 15.8828 152.007 16.5625C152.065 17.2422 152.165 17.9277 152.306 18.6191C152.446 19.2988 152.634 19.9668 152.868 20.623C153.114 21.2676 153.431 21.8418 153.817 22.3457C154.216 22.8379 154.69 23.2363 155.241 23.541C155.792 23.8457 156.442 23.998 157.192 23.998C157.884 23.998 158.505 23.8457 159.056 23.541C159.618 23.2363 160.151 22.8613 160.655 22.416L160.761 22.4863ZM173.014 19.8145C173.014 20.6348 172.879 21.3965 172.61 22.0996C172.34 22.8027 171.959 23.4121 171.467 23.9277C170.975 24.4434 170.383 24.8477 169.692 25.1406C169.012 25.4336 168.256 25.5801 167.424 25.5801C166.686 25.5801 166.018 25.4395 165.42 25.1582C164.834 24.8887 164.33 24.5195 163.909 24.0508C163.487 23.582 163.164 23.0371 162.942 22.416C162.719 21.7832 162.608 21.1094 162.608 20.3945C162.608 19.7969 162.69 19.2285 162.854 18.6895C163.03 18.1504 163.27 17.6523 163.575 17.1953C163.879 16.7266 164.243 16.2988 164.664 15.9121C165.086 15.5137 165.543 15.1562 166.036 14.8398L166.246 14.998C165.754 15.5723 165.368 16.2051 165.086 16.8965C164.805 17.5879 164.664 18.3203 164.664 19.0938C164.664 19.6562 164.746 20.2305 164.911 20.8164C165.086 21.3906 165.338 21.918 165.666 22.3984C165.995 22.8789 166.405 23.2715 166.897 23.5762C167.389 23.8809 167.952 24.0332 168.584 24.0332C168.983 24.0332 169.358 23.9512 169.709 23.7871C170.061 23.623 170.366 23.4004 170.623 23.1191C170.893 22.8379 171.104 22.5215 171.256 22.1699C171.42 21.8066 171.502 21.4316 171.502 21.0449C171.502 20.6699 171.444 20.3066 171.327 19.9551C171.221 19.5918 171.069 19.2578 170.87 18.9531C170.67 18.6367 170.43 18.3555 170.149 18.1094C169.868 17.8516 169.563 17.6406 169.235 17.4766C169.047 17.3828 168.866 17.3125 168.69 17.2656C168.526 17.2188 168.344 17.166 168.145 17.1074C168.063 17.0957 167.975 17.0781 167.881 17.0547C167.788 17.0195 167.7 16.9844 167.618 16.9492C167.536 16.9023 167.465 16.8438 167.407 16.7734C167.348 16.7031 167.319 16.6152 167.319 16.5098C167.319 16.2988 167.395 16.1055 167.547 15.9297C167.7 15.7539 167.881 15.6016 168.092 15.4727C168.303 15.332 168.526 15.2266 168.76 15.1562C168.995 15.0742 169.2 15.0332 169.375 15.0332C169.973 15.0332 170.5 15.1855 170.957 15.4902C171.414 15.7949 171.795 16.1816 172.1 16.6504C172.405 17.1191 172.633 17.6348 172.786 18.1973C172.938 18.7598 173.014 19.2988 173.014 19.8145ZM192.773 22.4863C192.551 22.9082 192.31 23.3125 192.053 23.6992C191.806 24.0859 191.525 24.4258 191.209 24.7188C190.892 25.0117 190.535 25.2461 190.137 25.4219C189.738 25.5977 189.281 25.6855 188.765 25.6855C188.18 25.6855 187.676 25.5391 187.254 25.2461C186.832 24.9648 186.469 24.5898 186.164 24.1211C185.871 23.6406 185.631 23.0957 185.443 22.4863C185.267 21.877 185.121 21.2559 185.004 20.623C184.887 19.9902 184.799 19.3691 184.74 18.7598C184.681 18.1387 184.629 17.582 184.582 17.0898C184.359 17.2656 184.09 17.6055 183.773 18.1094C183.457 18.6016 183.135 19.1816 182.806 19.8496C182.478 20.5176 182.162 21.2441 181.857 22.0293C181.564 22.8145 181.324 23.5879 181.137 24.3496C181.101 24.5137 181.043 24.6836 180.961 24.8594C180.89 25.0352 180.797 25.1934 180.68 25.334C180.574 25.4863 180.445 25.6094 180.293 25.7031C180.14 25.8086 179.971 25.8613 179.783 25.8613C179.478 25.8613 179.256 25.7559 179.115 25.5449C178.986 25.334 178.892 25.0938 178.834 24.8242C178.494 23.3359 178.254 21.9121 178.113 20.5527C177.984 19.1934 177.92 17.834 177.92 16.4746C177.92 16.1465 177.973 15.8652 178.078 15.6309C178.195 15.3848 178.348 15.1855 178.535 15.0332C178.723 14.8691 178.945 14.752 179.203 14.6816C179.461 14.5996 179.73 14.5586 180.012 14.5586C180.047 14.5586 180.099 14.5586 180.17 14.5586C180.252 14.5586 180.328 14.5703 180.398 14.5938C180.469 14.6055 180.527 14.6289 180.574 14.6641C180.621 14.6992 180.639 14.7461 180.627 14.8047C180.322 16.3398 180.176 17.9043 180.187 19.498C180.199 21.0801 180.281 22.6035 180.433 24.0684C180.562 23.4824 180.75 22.8203 180.996 22.082C181.254 21.332 181.547 20.582 181.875 19.832C182.215 19.0703 182.578 18.3496 182.965 17.6699C183.363 16.9785 183.767 16.3984 184.178 15.9297C184.377 15.707 184.576 15.5195 184.775 15.3672C184.986 15.2031 185.244 15.1211 185.549 15.1211C185.724 15.1211 185.871 15.1562 185.988 15.2266C186.105 15.2969 186.199 15.3848 186.269 15.4902C186.351 15.5957 186.41 15.7188 186.445 15.8594C186.492 15.9883 186.527 16.1172 186.551 16.2461C186.609 16.5859 186.668 17.0254 186.726 17.5645C186.785 18.1035 186.855 18.6777 186.937 19.2871C187.031 19.8965 187.142 20.5117 187.271 21.1328C187.4 21.7422 187.564 22.2988 187.764 22.8027C187.963 23.2949 188.203 23.6992 188.484 24.0156C188.765 24.332 189.099 24.4902 189.486 24.4902C189.803 24.4902 190.107 24.4316 190.4 24.3145C190.705 24.1855 190.992 24.0273 191.262 23.8398C191.531 23.6406 191.783 23.418 192.017 23.1719C192.252 22.9141 192.463 22.6621 192.65 22.416L192.773 22.4863ZM204.816 21.2207C204.816 21.8301 204.704 22.4043 204.482 22.9434C204.259 23.4824 203.949 23.9512 203.55 24.3496C203.152 24.748 202.683 25.0645 202.144 25.2988C201.616 25.5332 201.042 25.6504 200.421 25.6504C200.011 25.6504 199.607 25.5859 199.208 25.457C198.81 25.3281 198.441 25.1465 198.101 24.9121C197.773 24.666 197.486 24.373 197.24 24.0332C196.993 23.6934 196.818 23.3184 196.712 22.9082L197.116 22.8027C197.421 23.1777 197.773 23.4883 198.171 23.7344C198.581 23.9805 199.044 24.1035 199.56 24.1035C199.993 24.1035 200.392 24.0098 200.755 23.8223C201.13 23.6348 201.447 23.3887 201.704 23.084C201.974 22.7793 202.179 22.4277 202.32 22.0293C202.472 21.6191 202.548 21.2031 202.548 20.7812C202.548 20.2773 202.478 19.8613 202.337 19.5332C202.197 19.1934 202.009 18.9121 201.775 18.6895C201.552 18.4551 201.3 18.2559 201.019 18.0918C200.738 17.916 200.45 17.7402 200.158 17.5645C199.876 17.3887 199.601 17.1895 199.331 16.9668C199.074 16.7441 198.851 16.457 198.663 16.1055C198.652 16.7969 198.534 17.5234 198.312 18.2852C198.089 19.0469 197.784 19.7852 197.398 20.5C197.023 21.2148 196.589 21.8828 196.097 22.5039C195.605 23.125 195.083 23.6465 194.533 24.0684L194.392 23.8223C194.767 23.4238 195.095 22.9258 195.376 22.3281C195.658 21.7305 195.886 21.1035 196.062 20.4473C196.249 19.7793 196.384 19.1113 196.466 18.4434C196.56 17.7754 196.607 17.166 196.607 16.6152C196.607 16.3223 196.577 16.0352 196.519 15.7539C196.46 15.4727 196.431 15.1973 196.431 14.9277C196.431 14.5996 196.525 14.3477 196.712 14.1719C196.911 13.9961 197.163 13.9082 197.468 13.9082C197.702 13.9082 197.89 13.9609 198.031 14.0664C198.171 14.1719 198.3 14.3125 198.417 14.4883C198.534 14.6523 198.652 14.8457 198.769 15.0684C198.886 15.2793 199.033 15.502 199.208 15.7363C199.396 15.959 199.624 16.1816 199.894 16.4043C200.175 16.6152 200.533 16.8027 200.966 16.9668C201.47 17.1543 201.95 17.3711 202.408 17.6172C202.876 17.8516 203.286 18.1328 203.638 18.4609C204.001 18.7891 204.288 19.1816 204.499 19.6387C204.71 20.084 204.816 20.6113 204.816 21.2207Z" fill="#3445E5"/>
</g>
<defs>
<filter id="filter0_d" x="0.681641" y="0.671875" width="212.134" height="46.6191" filterUnits="userSpaceOnUse" color-interpolation-filters="sRGB">
<feFlood flood-opacity="0" result="BackgroundImageFix"/>
<feColorMatrix in="SourceAlpha" type="matrix" values="0 0 0 0 0 0 0 0 0 0 0 0 0 0 0 0 0 0 127 0"/>
<feOffset dx="4" dy="4"/>
<feGaussianBlur stdDeviation="2"/>
<feColorMatrix type="matrix" values="0 0 0 0 0.849861 0 0 0 0 0.966667 0 0 0 0 0.959658 0 0 0 0.25 0"/>
<feBlend mode="normal" in2="BackgroundImageFix" result="effect1_dropShadow"/>
<feBlend mode="normal" in="SourceGraphic" in2="effect1_dropShadow" result="shape"/>
</filter>
</defs>
</svg>
